<mxfile host="app.diagrams.net" modified="2021-12-04T05:52:03.212Z" agent="5.0 (Windows NT 10.0; Win64; x64) AppleWebKit/537.36 (KHTML, like Gecko) Chrome/96.0.4664.45 Safari/537.36" etag="ZlKKqe8jANkXQcZXR3Cz" version="15.8.9" type="github">
  <diagram id="zsigeTuYeNuyOFIo--h2" name="Page-1">
    <mxGraphModel dx="1422" dy="705" grid="1" gridSize="10" guides="1" tooltips="1" connect="1" arrows="1" fold="1" page="1" pageScale="1" pageWidth="850" pageHeight="1100" math="0" shadow="0">
      <root>
        <mxCell id="0" />
        <mxCell id="1" parent="0" />
        <mxCell id="pmaZRmS9SmH4wQ518jlS-1" value="" style="shape=image;verticalLabelPosition=bottom;labelBackgroundColor=#ffffff;verticalAlign=top;aspect=fixed;imageAspect=0;image=data:image/png,iVBORw0KGgoAAAANSUhEUgAAAjQAAAGfCAYAAABIuEizAAAAAXNSR0IArs4c6QAAAARnQU1BAACxjwv8YQUAAAAJcEhZcwAADsMAAA7DAcdvqGQAANSaSURBVHhe7P0LvF1lde+Nj33JlYQQSEISIIKVGoPQ2NASNQRSCwqSc4AqprRiOfJBIFWJbzh5DfkU6EuxOfAXxAbFQ6XgKQRqMZ4gNEULxYCxNSY1oiDGYIIJkCBi7ped/MdvXOZ85lxz7b32JcneyfiuNeZzH89lPnPOsZ4511pN/7+5P9hHQdBL2MevjH3qL0zQLM5i2WlSX+LpJE1dLchkzVBPU7kRJd0esmKK9QkU+u8k6UWstrSKir4U2lTV1/bqr1s3Y0mVbW6QRsvWjCuoGVsLt9PHTvWvJ6jXxgoKbavTrjRPe7qq8LLtjWV5DLOcST86W++hg/X8cOy+TTt1qudmbyAMmqDXUD6hZ6H0YlS+MO1LTq/sKehgOnXybS9rUa2C/N4MftXU1cFFIO9DrrzQ/qo6C7Rzgk3isrpLF9eMrtZv6eUxb4/O5K1HYSzL/exMHyua0tX2Ve1foRRdNx9TNfY9MV7tUR7LdAyLfmzUD9rrx6GL9fpw7Ho2H/NtbyQMmqBXUDyZJyHxcyhzNe8+uUDlRoSktUNTvQtdgfby1NPPZbRZDLcnvRiox5xq3d4n92u/nNRfS7mOIhpZrz0FKutvv+4MzqY5O85f7Fv3yPcn9yztY1X/gLTTWlqnjz3Rvtp5lodr9oVRr109OV7toe3ScfQxVNfDSJfozA8k7TAi6+/h1e0cm44+X3sjTZ+fu7z3ti44LCgcIHwSl5CdzPft26vp/N7LfsmNPJJubjsnmEZOuvlFqF5ebUsZjcWWy6EZ6cm+pDNNSyn0w/A4J02rQdTmvSzWw/GeXmpPkbR++NWVbZ26EZupLGRJ9VfpKOorq68zTEaeqP3RsPctjaul/hi3177OU2yTko6/koZr2yW+gt8pNLUb5NV729R1f3NTMxzEchz8WkC2eWFJP6zQATjceo3Z6J5eTRg0wUElO1AAn60lJC774LIUDRk2cES8LLa2UoPIMsnJt4rCqam9vFW6GYnlYtCTl2a/XRgk1I5evWhp39SVraR5nVm4DNRykmgvX2Q47PHyKrRHHEGrsHo4oAakBDSuXt0CFFk6nFQxMB2g3CeQ+3JKGoqYfuuZhLVv8PJFVyPZX9RSHGMAP+Ixr5Sq9oFiqD5ZjUnd0k5ro4TFqW0f8DaCvdo4bVPSntzXWdKSafuw0fZh/NCu3E38ls6bQjkH6YcF2vHDpbc15MeIOr2Rps9fHwZNcPBILyQ+Ed1oQQSMGQ9DcLJXv7q8Eb/Q4JmmeEHJ/cX4nPRiU4TzI1pO+mWXfea63lS/64SDnqd9wUv8cI2sjwWkFsU8WofWmdVtfnUlE7ZShzjml3GVuvFGGCmWJ6k/64dEwZ+nlXU73pdyPzzeWlaXdOzyvvAL8ZkfF2DLhDwC+mE+65+0gUXqNrd6fPP2CeU85TYleHulTUiTNkpEFs4otMXCaVsTPF+38DaIl30ybmq8NDe1ZHHNzXm8vNjPGy2nhc2f9OWQJunp4dJlx6aczdBeCxs0P+zdLQwOabIDpHwyZ1eNmTbauxeGDPv3tll87rJH/HKCgVs+09hJt0x+YsrTq07M0irRWwcuouXggY9f5kpYxC5qkt9caXd+0fI+exx7sFVK9XuKaTJy/fDphcguRmkb5J2X1Lpyw1FiuD5ZFbN6i7VnNanHE71fKUm7xZfpMzdJRxudtH1lvRJCf/DCBZbB7RHxc6KUtXSg/cNW+5WNs4TNiJSMxbYBbV85XCRtt9TudVt8GsZLb+VYGuIZqTNrk7slAxf5pP7229MI2mauHW3i9vj4ictGDIwaNWbchWheabP0RRRhq3GHAVkvtfPiPTyweVZ0eiVNt4dBExwk/ESNE7c6evLGyRxGTGrM7N27h4XD4odB4y7nb+LyHZzcs5OunYRBOc5TMk3eLsRU6N9nJ3a5QHBy4cQvablfahNX8YuTtB99YYGrYvFJveJP8aCpFCepE/5mhJNP3JqWt0FBXTBodCwRED9SuC1efwHRAdE06G0P7Styq/6avhgFPdbOsm5vv46rjzfE++fjrWjd6CPEx1n90j/LI23KXIlWv3jUzcIJhfahHQjLGxs1YLL2ud/SMqxebRckmQcSr+1E9QhzhAVr29MI0gJuC5pRNl4QbmluVcOmmeMSoyY3HKUHhT5YzKGPdvxw6W1GNte6NuUOGGHQBAeN4skZ3vxELsZLZsCoMdPmRk2SBqNHNMiFoHoq5xe45ARsJyb1156ecl3Qq65sOVDQhzeH9WWrBMnJX6X4yVxgPfnFFf3BxZb7IoYci2TJL7g5iZ/VIQmGi0dIW0SSi5BcmKwtks3yo25xtE5pj4yrxFq8ZMQmQ/vvdXIawsUsRaz92GpfLGzxoKhTw3mIsTZLLNJEfJzhV8OtapzxUgPZRfuG/ko64iSrtg1hK6phSfX0WrStqNPaKO3R9qVufjtH4zQ/6vN6fU7kbXQXaFh8Gs7KplS3UdH2yRixXw0YbhvmB0uLuK1i0EDEoBFB+30OWdvhQhm74pjuQxrt8OHQ00ow38zTa2m6fV4YNMGBJz84zCcuv+zCLhf4xJBpa2OBizjxu1Gjt52kfMWZphAlJ+EkJg3biVl0GXIBQeusjenFQ07s6uM3LgwcFkmMmcInW+TO6+NLl+jLDDPpJ1ZJzLBAXVKv1Wl1Z2FBtSFvU7Pq13ZYvcmFyP3aRmuDqCq2wS+ocKV+uCkoj1rh8oBDhakzPGDtTdsNfRJiLL6A6Da8HvHCdT8kvyD7+OLCK/1GPiub14m5lPfLjTbZv+7ihTZJfo2DH6iBByyP4eOItsi4ilfr1n2gbr4fLB5h5PbyWZ1ar7ZVV8zKc8HblbUIaRZK21aFj6O2Sw0sN1pgzLS09GOBIWNGTebXPD7WcHmDHmR9sNAhTtLLw6G7KTa18pnXO2GDZkXvbmFwSJIdGHZy9hM1TuBygTVRY2Y37WGBi/DIlq009cjXadyAHTS4ea+cU3Eu3763iV7b1UqrNg+g//ztQNrFYT/hHtGyj6YO30anDdlBw1rb+MSsZbbtbaaXdgygf339SNq0uwUtkfx6bcAFBLKX3nPUNrpg5FYpBzbvaaa//9VR9ArXx6d5OclDjuy3j/7HmNdoRL/dku9HW4+kxW8ez2k4Gebtgc7ceFNj5owhv6HzjvlNoY57Xh5Gr+xszceLGdrSRleN+y2N7M/GnLH8zQH08KtHSj246Iwd2Mbt2ESDud/b2prpH18/gV7dPVDa6Cs66KNcQFlGtW6nj478FedXA2bJ60Pp3984QtLAHx+zlf5ouPWfy/1wyyB65LXh9Cej3qB3Dd0ueTbtbqV71o+UdjtnHbWZzj3mt+Lfzfvjn18bRit/O4AuGf0m/f6ROyS+DPJ9Y+Nw3pct9D/Gah864snfjqJl246VMdYLt6JGgRoHMGQGNO2hdw99nd45eAsd2bJH+oNxwDxYs70//cvGwbSR65XxRhl+TTt6O50/SvsINu9pon94+Qh6aRvmi9b1p8dto9OH7RL/D7l/D78yTMYa/fTxeX1PP7rv1eNoy97+ug+8nVzPEc276bJR6+iYVp03ZTC2d68dRm9y3R8ZvZkmDdtpKSTtveulI+i3nOb85Ylb6KTBOj++9eoA+rfXB9KRrfvomhO3FuZNFS/vOoIe3nyKGjNi1KjBI0aZGZGFcWYXr0OdrIeHflerscOw46Px4CHnp5CQgyp8QocrnzBdcCnBhYgvQi5YsTlzyGt0xbEv0zsGb2MjRY0ZABcXvhMH7ab3j9hCbx+0jfbs2UV7du+ikwZso0+Ne53O4gvy8H5qzHgZ6DjliO008/hXacqRb3KZ3bSby+zZs5NdlTbWM37wjqwcGMrl3nnEVs2zZwcL3J1SZ3rIw2BA+TbW29YG18XD7HJ4H/t/l9tcruNUqWM7C9dhgraJAZgwYQj6uVX6K21m4y9nH4d1ZUuMJ6xwlVa8MLZpuxH2vv8eX/zPYoPO2/aL7f3okQ2DaBe3A6sJDvZf3j+MIbuiV4FxAL3od7n9Kcgn7eK2NgzrQz/2STm4Ol9E0D+Wcf1+S58Y/RLv59/QUa1qzACfB+9kY/dTb/k1nXnUb3X/Y3/WjCXvFzYMYBzvkf2h+yZtK/w6FxBfGh8xzHlc2N1rIn60OR/+GjBee7ic7vviuIzkOT2F26PzVedIWi90Iw37o71xT5H+oB7Oj+MTU0OGCy6HfZrCPVxEMI+acIfPyzqdOb1V8o9SQXCg4RNj+RyuJ1yOl2V3XAD5wiSrGHvodwa8yZ+u36CWJnzq5k/Cb/anG382hGb9+Aj66xcG0VObWmmrXT9xwcZFZXjLDvrw6K00rFVP5L9he+PetQNp9nND6W9/PoRe3NoqJ+n+fCT88THb6PfYgMiMGbh8UTq233Y6bmDp4spHz9sHs7K2nXJh1wsYi1ys815lFyIRXW2C6MVJ43ezO6p1G40dUPp0jjqO4Li9ptsE+aXRCYPYmDvraBg7alyhjqQZVqfWnRk0FpZ4Ht8UjDvad/yAHXTBqG3Ur1mVvbqzmf7x5X60bTeXY2OseIHcp/0xgR+GRQrqhd7/s7YfzVp1BP3nG1jlULbuaaLP/+II+uxPj6TlbzTTum176YafDaPrfjqc/ufzR7McQ3NeGEFfWjectiSrQL/e049WbR1ic0Vv2WS3JGHQsHtU8zb6b8e8Rke2aHve3N1M9//qSJrz/HCa//Oh9OIWbofNg3NH7JRVFYy1Gm2lfc+MH9LG+yafI2k/Ub/OH8yFPB7zIt8HOu4+9r/ZtY9u/+VI+tyakbLi4qzZ1kKf+fEQuoXn9693YOxg/JSMEp4nk47aw4aNtYcNGj5CLNGPBZ4bPFfTeYOx/39+MkzGdO6LY+iv1oyjv177NvraprdIu/W2nIqWy8seluCKKY55DiPKRk1vBWuH2siQkIMpOFni20rsh5mDby7hpAwXJ1ZcqN4+cAtfcPSk+hu+oH3r1X70xk5dcdi4fQ99/eV99LkXmmnNVj6J80Wibe9uOuuYnXR0fy2zha/Z963rTyt+s492c9or29vof7/Uj36xXS8guGhPG7GDBjTzhYbT1QjZTe88cjd/gpcstIdVwZgCxw7YR797BAwTXNzVmMGFKj3xo91oR5Xs4TZKGfa/44jtclsMlOs4mY0aXBxdkF+uMcaruHPD4d85Yi/93pGaXlgZEX12+w6yTwUXe4/DRTvViYvm4Oad9JGxO2hoP43bzF17YF0LbdwBXbq6UDTeeD9lRgTrxcU6uaADb4eML/ph8Q4MkaydFdJKe2j6yM00xAzU3ew89caRbNQ0y3zBeMvKnvlV2ujdsiqjbdnChtM/bhhC//VmExtePA927KX//cv+tHqbGkn9eV+/b+QengdcJ6dDh7N59z7axjtoQEsT/fGxWL3QOZLmQX06d3axv9hD3zeyD0p9U8O9bDzpahXGSssWjcg3uT072/bRUbyP/niU1gtjMt0veXuK8wZ5ZB9J3VZ/Nm52/EHkWNSXH6OHpYjDnnL84SDiZJ5eK7FCE/Qy7MSJE2omuEjlJ3EwnC9olx63nU5nY2NIi10k2LDZxJ9ib//ZXvr+63toCF+QTh6Sn8FXb22iFzfrRQOCMtv37KEfvoGTvuY5ho2f3xmkhgmkeR8bG/xpXA4YZvmv99Ib/Gka4ML3jqGsi/Nh9UVWYOSCk9epFw1tmwguTokf0sR1yEqM1YH24BM7QB0ThpaMIi4rY2Ss+s1eep3zY3Xhj0btlYs+DAOMpeNj6H3X/sNFnF7Miuyl/zamjUYP0NAuTv7nX5GNn7Wfy5T3i+8H7186FsDH3dtQLO8GkRk1okPDENz+uGj0Njp+gBlrrPp7vx1CK7YMzvqHSNTo8wYXZzyfcuLA/JmTX25vpdVbmjgdenU1Z/uetsI8GMH9PnmwtiNdZdnK3u+/jrYQnXREE51xNPeZ93/aD93nOn+q+ud9S/uqRiCHrQ8ODIt0vJAv3fcbuVvP/VbDv3dUE/0uz3fk54olDqCPshKE9iRlfXyyujkf4nLBGHL+RNfhTGbMHI5Yv3v76lQzGhivePW2lx46/OJzqR9Cq7cPlAdGAZ57wIrER9+yh25551664/f20v8cT3TGcE6Ui/Re/hS/L1v1AOu24oJiJ2u4Jmu27KMdds2CUTCiv5/k97LBso9GD9Q6d/An82Ub99CarflFagKnH9Uvf8YHF4YUuWjYxUjytHle+PnixHX87uBddCzXCXZy8f94ndvEbXVOOZLo6H65HoiPCXhz9156ZiPHc5HjBxG9+2i+ELHeFLk4ob/cHrlAmXi4nP/UI/fS6cM5D1fUxs6SV7nvm3S8MC56IURfOTGh2F+rr4TEm6DuFL+IalltIwT+yUftoolDd2UT4hc7+tO/vX4Ep6OgxkmZBMyfIS1tNJiNW+dXO9hKhE4eMLTP26LzQMtjHowcgDZYOxz2P/WKrur047PnHx3bog8tl/LoaouWd7J+yfjoOGX1I838KeiqtFPKQZAvrwv+f/nVbvrt7n00uLWJPjC2lec/6y0ZLlrH3sK8OeMYojtP20GfP2UL/a/xv6Zb3raBbnrLS/Seob+WfC7p1o7KmpemH9ovvJU09vB4WbfN6b2vWKEJeinJBcL48dZBtOy3g+WWTJn+LU3yifnyk5rp/xnfQkfiNkly4gd2rZKLQPqCvrJKFMUF4F1sIOH2Anh1xz76yZu76b9+vYcNKy0xrD9/Kh7K1xDyC3iNpuziJasNrBMiFxn4Oe60I/fISgxAHT99s43+6422Uh1YUcjLFeph/7+92ka/2raX0NSzRvJFnI25FO+zvOH3MNJkW+REthOs29xuok3cLs2pZVGnv1K0XZpH/SWScv4qwjHcv1QHxuvEwXvoA6N2Uqudsd7Y3UzfeGUI7drX+VPYHvm6udabt3Ef70FsrdPt8OauvfQdNmown44b3ELvG41voeWIbrylH0W8T74Pvf58vxb3beqvx88376H/3IRVGaK3D22mPxzBRk0NqKsxfe3R3fJ9lmxa4LJ5+JH1upd3Pp6hCemlwhu4uF5Z3L6mZvqX14+k2186iv7zN/3ozd1NfLHjtBTOd/KQJjpvDBeEjgS5QLP4103dbeWP8cWcDEeMGNjEuvIL5nNsaOzmi+ELv23ji5rG4VP6Hx5j1giXkYtZAkJ8Sc588vILF7+G998rK03OTzcT10H0s837uA7VhTomj2QLjdsrX5mVr87mLYYft0KefV2NtmMHEE0+2hIdZIdgWLAuCxF9EEtLYT1+7YKx9ScnNNHv8MUSmb2cfXlXMzmmi5spUkNS3qUG0+EygOu/eOye7FkerNIt2TiINu1phToT15dXKrotLUX2t6XJ15BlPJo5nl3LI4g+UWARCoLfYwNi/Tb9xtyZx/anI/rleVx3uZzgUZKezQiNAxyXthd+6ZK10fdbCr5W/e8b2+g3PHFg2H/guIFs+CV54IWeku7v/5rok//VXx6qx0PX168eQzf88kR6dgtPHsnMmTJXRX7vKAln8aV8h5wIPIbqHH4iTubptVJ1ygmCgwgOG5x8TcSPC3j+o16v7+5HD204gm58YTDNWjWAbnmhlZ7c2ET8wdlV0IlHNMvDn1vbMNOVcUfob7SILv+hMHaPH9ycrZBAx8admm/CsGY6akBe/vzj+tFXJw+m//X7g8XYcY4fDIFebW+7JJ9wkfftQ9rkt2uc949uoq/8QT/624n9uY788Dx+cBO33369lduWouPTIgbNy/jJE27C7x21jwZZn4CPo/c/F42HpPzXb5vpwXX5mB7JF+xL2agZ2g9jZmW5LWVUv/5mieRBYxJgcKG8Sznd26KC/dBEHz6+jcYNtIZw+f98sz+t2DwIuQt51UUbtJynb21roW1781WL4wbtlXZmc0DKNcsYp/Ng085m+YE56HakTRy3va2Znnx1r6yijejfRO84srgqom3XdtWQ6kv7j/iK/N5GNb6KY47ySN+wo5mW2bM943juHz8o359ZHyvK6n6wfeX5RESzuuZHiSDozYRBE/QO0hN5djLNT6440f63YzbRRaPepH4tehKWEzFfXF7d2UqLNvSjX23PdWDNZQtfxF7ckse99Yh9dPLQ4gl8IOv6w6P38adzzbNpJ9HPt+EHxVpo0vCmLL49hnGmicPRFkjJ2IBwPbwpCOJw0Z145J7G6zhaf8EVF1RWogkMxqa1pR/hO0BPbmyRizGeAUk/pKPP2Y+jSd0YBxsLuGhjwtrtzfT93/SjFW9yvNlbx7EN8SfHk7RBfnCNy+DH7zwdP9x2LBt6bqxAN57rcMRI2I39pn1AW2Q8ErKy0r4W+oPhe2WMvLurt7fS45uOqMknAj8MKekT4jTP1n395ccTnRMH7qa3Dtkn+f0n/ge1tsgzJd5cnwfN3E/kyWmSvuNXdf/jjSZ6aatEySqSg33retUQyPHVNZ1/nIZ3Ftb2F8F44ld8dcxEL+fL4PLY94j/t9ea+FjQlUis1DjST8sjBRyuN/21YOTzdnib0vzS3iDoxRTPYkFwIMFJ07yOnEzxkhOqXRztpIuLzaQhW+h/nriJzh+1k8bwp1CczAf3a6U/HsUX3IF6ZcVtqB9t1ovOv/+6P/16l9YyhM/nHzthD71reDP1a+1HYwe30pUn7qHfGayf/vFNnn/b1J927utHJxzRyhdwax3rW/JqM/3lyhaauaJZZO6P+WK+09LZOW1YE18Uyxc/7U92oUV/LIwL2xg2EMZYm1HHExv70adXDZTbAJ/8r34097mWQh0Tj+ILb/9+1MptTy8u0NXa2l/kR5sH0Gr5BdscZJWftpcLIo8lLo52oYbIBZElUaljznH/unEAvWrjhzb8wVF76bwx+7Qsp/9i+wDaYqtgA7naD45uo5HsaeX032eDcPLReDJFWbejhTbuHlCoVy+ajl28OQ0X798ZQvTfRu8W4wy8uaeZ/u/GoWy49ZN0zydjjH6xuHEmgjibO9/fcjT9Zo/umyPY8Lp09GY67Sg2ZHkcRvM8uuItu+itg7StPg92EY8ptxE6HIw7xrl/vwG0r3kAfZsNSDzInYK6kUfHNO8fysr4o00c7+Og/VCDE/NdBtrQMmqMoC0yZpzP0boGSH3b2HB7elNT9qyYgzGS+SHtyXVLWY6TNpjB5EaiHIciatik/QiC3krTF/5qZWn6B8H+J3tuYJ/6/LkS/WaIPUCLB2nb8JVo/crpeUNeoncO+o2WqwOMGawsPPLKYK+B3jJoL330uK10VD+7bVEBVg+e2DSInvo1X6i4TeeN3EHvO4Y/7vL5f9seor9fN5B+sdV+Et+4ZOwues/R+u0ZXNS+9qtB9PIONnhO3E4j7VtL9Xhpez9ZNTj7qC1Sx3Y2Cu59eTCtRh3Jg6EfHruD69ArJuq4/+UBXAcbVlzHqAGaR3/afoBdfJro5CPa6KNjt8iP7YFtrPv+jWPotd2D7OKUX9RQD76Rc2zrDrps1IbsbwYe3ziYnvz1QEl/x5Dd9GdjtmSrEPgBvPs3DKU1W/W5nrOP3iY/SuiGRxWbdjXT19YPofX4hhEzY8xWmmR/FVAG++KfXx0ivxtz3sj8Lwfa4+Vdg+kf33hbNgYAbdc5pXNpdL9t9KGjN9Cw1vwbT2VQ97d5HjzJ4ykjwTqmHbODPngszwUGBuZdLw2mN3dzEr/Q5b8Yt5NOOzK3av7zN630AO8ntOPS43bQ6UfVrw9g/zz02tE0fcSbNKJfdV782N7d64bKc2Pp2OGH9764Rr+2Dvo17aW/fOtOGsdz3lm8oZWN5RYaxrvrk2/dlc2bery8G399MMEMHRi7MLpgkKvBJXMIL59HGHNM4kMe6+Xh0NUyNmXS819vhI9H7J2QkIMr/NlcRT4JwsUJVF39BNtK/77teFq6ZSRt2GX/0+TwMQaDYPX2AXTf+qPo/246mj+RDqR+kH6DaP2eI+jvXh5J//6bIfTG7pbsQWLYDLg4/3jLQEl/5rfDpNzg/gPEKJCmMa/u7if/b9Ov30D+ZD5I9bL8LPkaOS72px65T+Kzgu2A2034vZtiHUPk07a3W+sYXKxjGF+0OE/6iRkXHLTN2/XLXUPphW14xkTB6Mqn/Bb9lN4qrq4geBg60ouS6BR9A+jnO4bQ9zcPyU5qWOH40LHbaNTgFurPn/yf+e1R9JX1o7jOgbIfPB/G+bd7mum7PO5f/tUo2sj7AfogWJGoB9qht8bq56mBxzNdtcn9uvqE1aZX9wylezaeRM9s1tWabB5wfVvbmuVbdAteHkVLuT/ZeLKL8g7GXfYR75/+rYOohfM8/cYR8ryWgxUO33/t9dOR2c9tha8eMB5aW2rHDvHZvGTZ1zKIvvvGIDHMHOxLTdf/8uoIaY8YLzx+OA7FbNNjU45RhEUPt9fdw0Cw1Q0oph3akjrltN4lTXf+1X/ZYR0EBxax9vEpWgL2adpWJ9JVGl+p8R8kK/zQGOfTFQ3TaJ9Ui/BE5xN/R/iqiOpJ/eZlOISMFtKw6JYorweubOUigADiNaztkD5qIa0LYfQDL4mG6/W466gO+caJ+sRAkhq9Lq5XL0p2IZIwXE1zdOzy302R8bTfLCm3xdvu9WftKjevBPTUJetjno9bKC5XqI71C2G5wMLlizr6o8aL9Q+rCCjr7WTd6Id/TT7rn/eZ549m07D2WcuJ4+1OwuZlLC6LyBIMazO7sm9YdD9IbzJ/iupCHVITIlRrXqlgsZbOrywZfgTUxStF69W6ZS7YGMLgwdip0WurMjKufhssGWNpt81pUap9sNChTdbFw6K3BbK5VJxSvY6mO28IgyY4OMhBYmdjbHFBQbh8AVKDBkaMGjKZoWMXp738UVt+WaTiJA4aPf0Uypq3GFetP41DXX4h8wtWGsYLpGWk3ei7+ZHqaLgW1201wlFfWhcuQLjIs98vRJ6eg7r14i5jaWOvbdK2lNvgdWtsdfuceu2vol49wPvjbmqsaR81Df3M++dzScdX50raP/OjD/JO+5q3pdyucp5yeor2wfdH4kcb8+7lmKq8LbW6q+rzvJ6G8hwwvyLV2RjpeGHsfCxV1JjJw7pKk88jKYcX+iL9UaQ/hwWHT0/LyJzq5YRBExw0sgOET7ziE5dfdsFRo4X9ZsQgHqszWEFQYwZ58/xKvenc0WmoWC7Xh5QkrRyfFrMqslNeduEyV6MyElWmC1uLtMRC3UamHz5TmF8sJSRhv8jLhYtFUizOScev4OIlbYCreVNEhTdVnQyUbYhEcXtluAdSobySfulFVvuW91XHwcnnRq1xo35NcxeIN6HQtiRR4i1cyJOANnOjCq40UcjbmWP6qtVV15O2oeA315A2wJVxysdMDBeMoxswMHIkDmHkKRrFvFFN1hHXe+jj/ZbA4YVNo3rzvLfQ9MUbftS7WxgcshQODj4RSwguX2zSi48bNfrvv1id8QuS5bGXKsj1Nnqi9fwdwnWlFMpVqNCLq5L6i2fEvKBeVDuJqeLLjXnQa37BlTpzP16eDlewMUZffLy9HT62FlA3owttNdrrZ1Waj11mtOAFVy668OcXZ7wss7RZ/xyy2Dd5sR/peOlb622vbZIxof281WhfvD/WVqOor3O6y23RcLUOMUrMVSNFx9CNl3zVxsc1zwORsqrA/MV+HNJkXT2M+izYXOrctDzgNH3xxjBogoNHfiJWF0G52HC4+hM1DJw8jjdaMpvFmYdp5KST5m+f8kUDZfWCqf6U/GKVtyG9mNVSLF9bVzVykTE/dGfVih+XGrj4VC0xmpJnEmRc8UKdqd/aVK8plirbxinmL/azPV3an6xfInaxRaz4PR35oVtd6JU+Ys4glM0bDlmm9mp2im0FPk6NkY+7u43g+jsqY/3I2lO/bfk46ZilY6kGYoWhaK6WEy3YCBp/uMD9N9/hhs0w2fZWmv7uxlW9u4XBIU3xpIuTsLvwqKuCi5G5Fpel8wtvB+FGTztStrNI3Tn1dBTakJz067WtRk+pnhqqdGYOv7ILkOeD37ySMddfHlOJ8/QOmtFZ2utnTRqT9016JU0XX+EiqyLZkMFwfYX5UuonqKq3klK2QrlEXyX54Bfa2BGoo6P8Ne23tlT1S3TVGUsVM2QkPk+TnNIM2Qg+5kHQG2j6u5vCoAkOLumFRU7BErQTMgfcmNG3hSWT55Gt+A8ExfaCjuounvQbvQjU1lOkVk96oTGPXZTMlybkYIxlXL0++M1boKN+Nk5Xx7B8YUXY+yWuRueYWvSvqp+y7ajqSvJCHe2nMo3u/65SbE9V23Tccr+7EDVk8Nbnrjxvns/Z3/0Igs4SBk3QKyifhDWocZqW+0XSE3VSthB/gCi2vT776wIgF6AyVleWlmQp58/GLHPc01i/ujvmjY4fkIsu2p/2z7ojKaUxTnWn/Sy0uRP1l6nX93KfemrfS3/rUNWWqrFN21IeSxlfD5tBo35xmMyT5QuC3kIYNEGvoXjyVb9GuR9u6le6e0HtMt2pdj9eC8oXveKFp17FteMK9tvYdlWtNT/to/ZPw+WLbO0FvbafPdrHHlRVoNitjmmkHabTx7J2HN0vW/E75XEOgt5AGDRBr6LqApRHFdNq8x5oulv//r0o1L/opPHVfdi/Y9sd3bV9yvvZ3njW1tnzfdyfYwba61+ZRtpS1Fc1jmHMBH2JMGiCXkeVUePUXoN61/Tt6CJ5YC4G1XW0V3V1sw/M2DZqWNSOXTHc+f6BA9PH3k8+eMVxLI9xO4McBAcZNmh+HEd00Cupf6HrnVO2wetyuxfe/UdHlR68MW103ED7Y9d7+9h3qB7DMGSCvkDTgjBogj5Az98e2F800s64OBRpdN/GuB1IwogJ+hpNC/662qDZ+FdfN18Q9A4O2sO/QXCYUX6wPAh6AyP/+kPmq0Z/xzoI+gA4yfb2V2dJyx6Or66S6ujNr54i1dmdV0oaX34FQV+kacFfP1dnheafxB1BfyLuocom+mdxD/V+BkEQBEFfw6/RYORff9h81TTDFq+SIAiCIAiC3kKVrZIKfue6OiUIgiAIgqC3UGWrJBLP0ARBEARB0OcJgyYIgiAIgj5PGDRBEARBEPR5wqAJgiAIgqDPEwZNEARBEAR9nub0x5TSVxAEQRAEQW8htVGqXrFCEwRBEARBnyd+hyYIgiAIgt5Pla2SSKzQBEEQBEHQ5+mVz9BM++k7aeY+ljdOoomImHUSXYHwvnfQf58lWYIgCBrgOLpUzh3vpEu/alFBEPRJUhul6nVAV2gm/ts71FCpkZNpmuUJguBwYAT99zcqzgX+ISYIgqCTHKRnaHbST5p+TAtYfvI8wgNoQnIie/IdmrZg+BpaaXFBEBwiyIrraDr+KD4TPPmKHusszzzZRnTUETQhVlKCIKiiylZJ5KA/Q/PGBj6JgaNaabj68ltOPz3OYoIgOGQ4tZU/woCdtPqPNokPrPyjn9KCe3daCFSs4pTOCdWrvh2s+H715IoyxdvZ6Tko80NiBSkIei0H3aAZPqZF3J1PvkFPii8IgkOaVXvYlAEDaIIZDRn/40V64H/AA2OmuIojKzjjhxeMCjGCbIVHRAyi4opvDVxHocxntnJ7Wuj4z1cYQlzfmO8h3xv0BsJHHUGn/9sISQqCoHdxkAwaO5GxTBiPcBttXJx/UguC4BDm9jX0AxgnDoyU8grIV4eLMZOu4qxcvEMNodJtqcIqzeW69pOu+FaSrtJ8/ghbMWqlI8tfOnj+DTOwdtLW30hMEAS9lINk0OTP0OSfjuJbCEFwuFBYWZFzgGErIBNPbLWIhNt30TbzKnpL6r3TWoh+s5WeKeuqg9xCEsPHz0O2+tIgA8aY0RQEQa+ieR9vquSAcftm2miffAafGEu5QXCoM/HfTi7+/MLta+ieplfoZTsPwGBY+dIeDaTM6k+DzSvMGkojZRWH6I1vNPoFguNojKwK41ZW3OYOgr5Ela2SSjM1NVGlHCiSk9K2l+K2UxAc+rTKiuwV6bMoqXHyvV8R/Y83zMAZQL9j+SZOH6i3hn6zlX6C20DJio1/GMry1CW/dZSttHx1cPu3p4Ig6B1U2SqJHPRnaPT+dRu9/Jkf273qIAgOZVb+0UYxVgZMG116jkVvAel5YBN9c7iu2ng+ubX0/BvJzzn8ih6wW0ye5/Qx/sBxPaDXbjH5szvvZiNK0oIg6Ms0felzz2OlpoZXP7tQ3BH0J+Ieqmyifxb3UO9nEARBEPQ1/BoNjv3cDPNVc9C/th0EQRAEQdBdDv5DwUEQBEEQBB1QZaukEis0QRAEQRD0ecKgCYIgCIKgz9Oc/vV2+gqCIAiCIOgtpDZK1esg/dt2EARBEARBJ6iyVRKJW05BEARBEPR5wqAJgiAIgqDPEwZNEARBEAR9njBogiAIgiDo8zR96W9fwO/R1PDq//ug+YIgCIIgCA4ux/7tn5qvmlihCYIgCIKgzxO/QxMEQRAEQa8ntVEqX1+e/7PKW06vzHlA3CvXzxX3UOUrY28R91DvZxAEQRD0NfwaDUbPv9R81cQtpyAIgiAI+jxh0ARBEARB0OcJgyYIgiAIgj5PGDRBEARBEPR5wqAJgiAIgqDPEwZNEARBEAR9nvgdmiAIgiAIej2pjVL1amZBrloJgiAIgiDoLVTZKonELacgCIIgCPo8YdAEQRAEQdDnCYPmoPEKfeMT/emKRa9YeD+z/HM0duznaLkFa9H2fAEZkPcTC+k1TegaHdaX0sBYZG1K2hkEQRAERhg0nUIvpmPHVlxQ5QLOabcvs4hDhQNseAVBEARBFwiDpgucP/1Cmv+VdAWDL/pfWcHxFgyCIAiC4IASBk1XOO8ztIAuowd9lWb5vTRz/Gfo6vEWNpbfrqs5mXRwG0fzX0Lf2KDh1xZdUiyfrf4soy9wOF0lkrwF/flqksj0Gyy+HqNp3PgLadxY9o49ic4ffyKNYu/y28fRzMVEj10zTvVYHbX11bapgK9gZZL3M+cp0eF5CrqyNiXtDIIgCAIjDJoucSJddOP9tGo6nhHhC/n0FbRgxmRLy5k0axetX+/yNM1ZfBnNrXPrBgbC9Ofvp5XrH6aLxnAEGwATr3kXLU7LP/9SuwZRihgiBH1WfvFNllKfSbOs7jEz6J5Z2p9Js9bSgulE59+1VvXcPUMMnU4z6bPWD5XF1y2imTcWDbzHrllDUyx95V0X0nwZX6PQJmtnEARBEBhh0HQVvsBefd0NNH3sVFp1150NXGAn05Tr+KK95iUL58CYmfj4xbSyxlhYQWuzVYzJ9OmGjYlltPTWC2nBjV00Pg4Ak6aygbV4Da2zMDj/rstpkvlHnXExnV/ofxAEQRDUJwyabjBpxv180b2Jrr5wtMWU2LCQrkhuoUy/1eITcCtn4jWLaM6VJeNj0md1FWNSnVsw7bHhJVpl3t5DZ2+BBUEQBEHjhEHTHXAbZP1ns1WFAjBmJl1Gpy5Ob7NYWsp1TxNuB82fXmuwpLesam7B9ClgzIyjmeO5r9afRm6BBUEQBEGjhEGzv1i/hh6jm2hKZu3gNpB5E84/6URZjVGjpvhAcGrgjDrhXeYDJ9K46USr1vnzOMvowWsWmZ8ZczZ9cPoimrnQHyLGt7C6uiKCh3Brb5VJe5JbRq8t+jzNN38tL9HaxURzpubPGS1/OlZogiAIgp4jDJr9hdwywjM2fpvlSaKqFRqH86+8i+QWE37zBc+QrJqe3qJZQQuW+2rQaLroypvybx6x7nF3XSgpCqff/TTNuXWqpX+K6Lyur4jIrTXX5d9smnQ5LZie928uXUxzJHcVk+nTtgql7elPS9nYC4IgCIKeounu//XiPvMX2PA//1HcK9fPFfdQ5StjbxH3UO9nEARBEPQ1/BoNxvyvPzNfNbFCEwRBEARBnycMmiAIgiAI+jxh0ARBEARB0OcJgyYIgiAIgj5PGDRBEARBEPR5mpuamqhKgiAIgiAIegtVtkoqsULTg6xbt5q+/e2v0z33zKc77phHd9/9N/Too1+jn/+89/0RQRAEQRAcSoRB00M888y/0De/+TU69thj6GMfu4zmzZtHV111FY0ffzI9++wT9PjjD1Jb2x7LHQRBEARBTxIGTQ8AY2b9+jU0a9YsOvfcc2ncuHE0dOhQGj16NJ155pk0e/ZsGjiwVYyaIAiCIAh6njBougluM61YsYwuvfRSGjFihMUWaWlpkfTt27fQj370PYvteyy/vT+Nvd3/H6pnKOiUfyfP/89qf4D/yMr+vqE3sPxzNHbsgf7TUf3nc/zFRhAEwaFCGDTd5IUXVtBZZ51V15hJmTZtGq1a9QML1Ucu8mNr/327UeSibf+ZpLJ/jYQgSOl1RmMQBIcFYdB0k5deWk3jx4+3UPtMmDCBNm58lTZvftNiKtiwkL5060005zqi+U93YzVk+v20cv0uWg9Z/C6aOan7Rs2kWaxrVv6P2T1BQeeYGXTP+ofpojEaDIIgCIJGCYOmm2zZspmGDx9uofbBrSc8W7Nt2xaLqeW17z9Cj103jT4t/3D9ZM/cipB/xl5E3/q+32LQWw7ZCk7h0/Qy+gLHfWG5uki/YtG3Mn96y8lXktrVswi3kTxPalTl+uvecpLbMV62XD5fCfhG2o7O3hKzOtLbL8V+pbeDOupTR2MCSmM//QaLNzrocy1V+4v70kk92m7NU7nCku4b8ae6k9VErnfiNYuIFl9GExuoNwiCoKcIg6abDBo0iLZu3Wqhjtm+fTsNHDjIQmVeoWceX0Rzpk4mGnM2fZAvdl/qweccTj1hNG9xQR1HM8c/ras369fSAuKLT8kQmD/9SZpiKzz3XPhB+jS7i6+zRENWVyzP+vVP0xy+iM0ttXf+40S3WJ7F1y2imTf6hXJypc4Ckz6b6C+XN7jOtVMtz3IYgVMbv1WHC/P0FbRgOfqIsdEL+/Tn89WtxdfdQNNLF/e0TyvvIpo5KTd6OhqT5bfz2FO6enaTpRiN9LmC4v7ivnRCDwwY7bOujo268DPS7geTcVy+8DI2tD+jq2eykpbrXnnXhVy/jQHXi3C+QhgrbkEQHBjCoOkmxx03jl588UULtc/q1avFmBk27GiLKbH8XprJF7gpkxAYTe8970J67PGnOryYdcRriz6V693wFH2L/YuzW0ej6aIr+aL6/EuFeuYs/ixJMxpmMk1h4+SxNS9ZWJlz5QwaZf5JU7mexWtonYU7S2V5vnD+qTdUjECiVesaMAJhzEx6hD64PL3gLqOlt15IC25M2oyVslKdaZ9GnXExnU8raG3lKkR5TGr1d0SjY9bR/qqnB8bMxMcvppV3p23Sdue3PNFurgOGdgXtj0EQBMGBIQyabjJ+/ER69tlnqa2tzWLqs3TpUjr11PqXneVP30Dn33V5dmGSC8XiR+iZrlwosiX//jTxGqIFy+2Ct34NPUY30HRLE8Ftj64YGqVbD9P5otezdHB7pqtgbCYlKw7OhpdoFS2imZOSOpGvvYv1mBPpVC6zdr2F2xsT0d8RPdXnjvU8ds04uT2UGmiOGHK3ft5uQX2e5qeGI1O4tSZjFARBcHBpxp8cVEnQGG9726k0cuQYeuihhyymmiVLltDGja/T6aefbTFl9FMwLjLFC0X67EsnSB8Krln2v4kWZ2kunVyRkRWOy+jUxbmOdm8fdZryrTGW8u2ZLoP+P01zbp1a8czNhXILKqtTpJ3bJmKkXEjjxsLf3THpqT43qOc6Tuf4+dOTZ2AcWe3C3Fsmt0HPP+/szOgp35aTW32WFgRBsL+oslVSaaYmdqokaJhzz/0wbd26g+68805atWpVYbUGt5nuu+8+jn+OPvCBj1BLS6ullFj+pHwKzo0QE77gPHbNvdkzGvLAZnd+t0QeEL6Bphcu5MvoCzUPr3aArPT47TGgBlnP8RKtXVy8zYEVrB5h+kl0gjzDo0ZN9kDwmBl0dc2zJjAO6o+3PFsy/WJ6LwyejsbEjISZC33sWfdX0j71VJ8b03P+SSfyfPiszLH508sP7+qtyMeumSq3K6+2Z4zQ5rXPc9nEwJEH2c0PRp3wrq6t+AVBELRHla2SSNxy6gFgpFxwwUfp7W+fSEuWPEFz586lm2++ma6//np64IEHadiwUTRjxtV0zDH1npzQC1t6kciYNI3m0A20tMsWTBm+UN29lhY8PzVfCRo7lVZV1d0efCGUB2YzHU/yJ35L6xHY4LDVA2/nUjYWehauY/n9RFgVM4MOD/UuHp/frhs7Fisd0wqrV2mbZKXCnz/pcEww9rYyJOmfIjov7VNP9bmTeuRBXjzcXPqxPZl7zHVp/7kPN9qYme65a95VXKFxo1nS41tOQRAcGJr+922r95m/wK9mf03cK9fPFfdQ5StjbxG3J/uJ35nBV7PbfQC4DyK3GujpHv0tmv2hc/+Br0ZPJVq8iz7dqftzfRX09/M0rvDgdBAEwYHDr9HguNs+ar5qYoVmPzB06DA69tjjDiljJrvVgNsUPcb+0Bn0FK/Jw8B2Oy0IgqCX06sMGnxaj/+X6W34D7bp76fckj1L0R32h86gZ1lGD9b5BlQQBEFvpFcYNP4V0J7/2m/QffDwrD2gXPitku6wP3QeCLTdh8ftpsOpr0EQHAr0CoNGf111LS2YbhFBEARBEASdIL62HQRBEARB70fMk311JR4KDoIgCIKg19PRUksYND3IunWr6dvf/jrdc898uuOOeXT33X9Djz76Nfr5zzv+wfsgCIIgCNqj8ldmMpoLvxucStApnnnmX+ib3/waHXvsMfSxj11G8+bNo6uuuorGjz+Znn32CXr88QeprW2P5Q6CIAiCoFNU2SqJxApNDwBjZv36NTRr1iw699xzady4cTR06FAaPXo0nXnmmTR79mwaOLBVjJogCIIgCLoDVmpqpRd9bXsczVyc/zljX/k9GtxmWrFiGV166aU0YsQIiy3S0tIi6du3b6Ef/eh7FhsEQRAEQeeA8VJNL/radlHu6SM/tvbCCyvorLPOqmvMpEybNo1WrfqBhfoG8meYnf3jygMK/jyyZw3g3t/nvot8eKn5h/NusPxz/AGoG3/WWon+8GPNP5AHQdCriVtO3eSll1bT+PHjLdQ+EyZMoI0bX5X/eqrFfz23JJ0++esFHmVrTshy8u+KzgNFXEiCIAiCrhEGTTfZsmUzDR8+3ELtg1tPeLYGf1xZjzmLk5Wq5ffT+bdO7dIF/vzpF9L8r6SrDPhH7xUcb8EgOAjIamyv/yPS+JXkIOiLhEHTTQYNGkRbt261UMds375d/oW7IcacTR9kA2TVui7cTjnvM7SALqMH3Rhafi/NHP8Zurq8mOSrNplcQt/YYGk15Ks/mRRWe2yFZdFCuiLLU6vP/+pCxW8XQPdUms+++dMtzXQX87N0cDtI83u9HbW5AWyM0tta1X0AvsqUr7hJuQ7G2W9zfSPVm7ZzQzqmKu0butrvK3hfpCt/KFNoe8VYdNi3Dvav9CVLV/G2iu6szvptTGlPXw0+Tl5HB+Pm4748qwP9jZXCIOiLhEHTTY47bhy9+OKLFmqf1atXizHT8L9wb3iKvrX4Jrq6S88TnUgX3Xg/rZpuJ+jpK2jBjIpPxpM+W3h2afF1i2jmjfUMhtF00d153norSPMfJ7rF8qy8i2jmpPyiiAva9Ofvp5WWvvi6G2i6GCjQ/TTN4TzZKpV9ki8+Y8V5Fl9Gc+s8M4MLlOp/mC6Sf4lurM11wQURY7c8f66rfh9y5k9/kqZYupRrZJy5X2unWp5yO8fMoHuS8ivvupDrSI2Nah67Zk3WDi3Tn7500trqOpiG+pbs35p+sOE28RqS8ZI6sL8sqR61bUz61Sl9PM8nXUanYv74KlAj48bj/iW60/J8lmJhJgj6JmHQdJPx4yfSs88+S21tbRZTn6VLl9Kpp7Z/usxWJyB8cn7M4rsEn8yvxgVp7FRaddeddoFvn0lTb+IT/BpaZ+F2qbOClP5D86gzLqbzaQWtlU/xy2jprRfSghvz9Ekz+KLaaH3CZJpyHV8E17xk4RwYMxMfv5hWtveHl51Z9YIxM+kR+uByN45AY32Ys7j9C2PlOE+/n/7UC3XQzuK41uf8uy7P2jHqhHfxNjGQa+posG/J/i33Y/nTN3Cdjc01p9DGUr8a14dVlanclvZvFVWOG497/ON7EPR92KCp+HUakaAR3va2U2nkyDH00EMPWUw1S5YsoY0bX6fTTz/bYqopPEMDWczn2258i0MuSOlFrIbSLZnpN1h8HQq3TvSr9u0y5kQ6lRbR2vXs3/ASrWL/zElJfWK0dXBhLt02qPpXdnzdf+I1iwoX24zOthnwp/aJaNt1nyleTLvah86OcwWFW0HdNXar6HLfnFdo7fPm7REa1adG+/zUIEzY7+MWBMEBpKnGWnGJFZoe4NxzP0xbt+6gO++8k1atWlVYrcFtpvvuu4/jn6MPfOAj1NLSaikNMmkazeET9tKuWjSy5F5vtQAXWb7Aj386MaD4E3c9YBjY7RfN38A/pMtF8kIaN9bC7M/Lu6QrICVklcRuI1j+xddZWsp13AduO1a4CreTutJm4SZajNsbt06teM6kk33o7DhXUL4VJLeLLK1n6WzfegNoM+9XYiO0dHvswI1bEAT7Gzdc6tFc9UfbkKBxYKRccMFH6e1vn0hLljxBc+fOpZtvvpmuv/56euCBB2nYsFE0Y8bVdMwxdW+E1OW1RZ+n+XxxnWIWiT4g2fUVmyIv0drFRHOm5s/WYIm/Hq+tW0E0/WJ6r1/c5Bkf89dh+UL+ROxl5BZY+dkRXOy9PyfSuPJtlvVr+BN13n+9LWLehPNPOpGNv8+SGjX5g6pdabMw/SQ6Qb7tokZN9kBwh32oonPjXIuuVJx/3tnZ6tNr33+k51cautS3lNH03vMupMeuuTfPv/xJedC7azSq7100bgyelTKjJnno+ICMWxAEBwYxUNytlVih6UFOO+3d9Gd/9kn6+MevYwPnz+mjH/0UXXHFHDrjjD9ueGUGKwzZ8jjLxGveRYv324OKfMG2VQ2vbykbD/UYdeGdesHw9t24hk6tWO1I9cmn4+SZFjzgu3h8ogO3gMZPs/7xRenKm+T2kaThwsRGijyYmuV/kqhqhcbh/Pogsn67qNE214fHiD/VE9pkn/7b70MVnRvnWnhcbrQ2WPm5a961X1YaOt+3IjLe05P99TQbcpbWFTqnzx4sx6qaGP0HbtyCIDj4NN1z+5rK3xF+edZ94l65fq64hypfGXuLuId6Pw8MjT2YGRxGVD5Y3Q16Wl8QBL0av0aDE27/KG97+V8fBEFwaCK3eNJbft2kp/UFQXDoEAZNEAQ9R+kbaXLLtL2v0XdET+sLguCQJQyaoAeJn4w/7JFv1dk3ikS6+fxXT+sLguCQhQ2aJnaqJAiCIAiCoDfRzu/QVEVCgiAIgiAIegsd2SfNBSsmlaDTrFu3mr797a/TPffMpzvumEd33/039OijX6Of/3yV5QiCIAiCoEvI7824WyvxDE0P8cwz/0Lf/ObX6Nhjj6GPfewymjdvHl111VU0fvzJ9OyzT9Djjz9IbW17LHcQBEEQBD1JGDQ9AIyZ9evX0KxZs+jcc8+lcePG0dChQ2n06NF05pln0uzZs2ngwFYxaoIgCIIg6HnCoOkmuM20YsUyuvTSS2nEiBEWW6SlpUXSt2/fQj/60fcsNgiCIAiCniIMmm7ywgsr6KyzzqprzKRMmzaNVq36gYV6N/KfUaU/+gt6ls6NMX6FufTHm51F/nW8p/4HLAiCoHcRBk03eeml1TR+/HgLtc+ECRNo48ZXafPmNy2mgtIPiYl01rCQC1dJB0u3LoZBEARB0IsJg6abbNmymYYPH26h9sGtJzxbs23bFospIp/YJ11Gpy5Of0hsF6087xF6sNPGyE20ONVx14U0f3p8Og+CIAgOTcKg6SaDBg2irVu3Wqhjtm/fTgMHDrJQyjJ68JpFNKfijx1HXfhwt399d9QZF9P5tILWbrCIipWgqhWcZ25P8uDfrzNeoW98IkmrSTcDrSq9wbozKlecLqFvWF+Wp22EFFa0tJ1XLFoot2w8D+orlOtU3+z2D+vM+5G3pz5aznVO5P2d0n4/jHX166y9hdX+barO5g+CIOjNhEHTTY47bhy9+OKLFmqf1atXizEzbNjRFpOw/EmaTzfRlP30u+7yp37XfSb/h+LST8pXruAsvozWTrU8y++n82+dmlzsRtNFd+fla9LZCJH/3fH09U/TnOdf0otnI3WnTPpslhey+DqOS/oyaVaeJvVwu+cuekUTjceuWUNTLI/W15++dNJaLdPZvhnzHye6xfIsvm4RzbyxvVuDMJKm0vzrns70oh0pjfSjc3UGQRAcPoRB003Gj59Izz77LLW1tVlMfZYuXUqnntqOxTL9JDrBvN3nBpqefZKvXQ0oU7OCA6bfT3/qzR1zNn1wOtGqdcULbEZleqpvMn26zp8KVtZdB6wqTH/+flo5a7LFlJlMU9jgeWzNSxZWzr/r8uw/gEad8C7e3kRXXzhaI7rUN6I5V+b9mTT1JjYA19A6C9ew4Sn61uKbaHHddpep7ken6gyCIDiMYIOmiZ0qCRrhbW87lUaOHEMPPfSQxVSzZMkS2rjxdTr99LMtpoIevTgVn6GRT/Q0tXDrpHCLY9Jl9JjFN0zhVtA4mrnY4sGkz+oKwqS8jnSFo0t1+6pP2TAq3cKafqvFd4f2+tYV1q/puI/7ox9BEASHEPgnpyqLBRL/5dQDnHvuh2nr1h1055130qpVqwqrNbjNdN9993H8c/SBD3yEWlpaLaXEpGk0h26gpXXvu3Qf+UR/65NyawcGhax0uMGD2yqarTFwwZ++ghYsd4NpLS2YbmlGegslva3UpbpxsZf6Sv+2jPjSg9RyS6o7NNC3Hmd/9CMIguAQoiPbJP7LqQeAkXLBBR+lt799Ii1Z8gTNnTuXbr75Zrr++uvpgQcepGHDRtGMGVfTMcdU3XBxJtOf2rMd5Wc1cJslfTalsQdQy7xC3/jKDUTXTWOD4BVa+zzR+eedna10yDM25m+E19atIJp+Mb3Xn8mRWyrmZwptZvQ2D+hK3cvoC3Kxfzh/BsiRlY/02aNltLSbKxsd9a1LmMH6peyZGH0IPKMH+iFjnKzyvbbo8zTf/FV0Nn8QBMFBRf6zyd1aiWdoepDTTns3/dmffZI+/vHr2MD5c/roRz9FV1wxh84444/rr8wk4NtM6xffJEZNfrujP018/OL8WZaGKT5DI7dNxj9N6+UZjtF00Y33E10zLkufu+ZdnVqhGXXhnbSALqOJrv/GNXRqsoqB52JWpf3IVle6ULc8ME014yIGk9zaSvv6JBttUqrLdNS3rjGZPr087feTNC59KLgn+jHpclowPdcxly5mI6odOps/CIKgF9P01S/8cp/5C6z99L3iXrl+rriHKl8Ze4u4h3o/gyAIgqCv4ddo8JYvfIy3lSaLECs0QRAEQRD0ecKgCYIgCIKgzxMGTRAEQRAEfZ74HZogCIIgCPoE8Ts0QRAEQRD0aTqyTeJ3aIIgCIIg6P3I7824WyvxDE0QBEEQBH2eMGiCIAiCIOjzhEETBEEQBEGfJwyaIAiCIAj6PGHQBEEQBEHQ52m69851lX+M8MtP/b35giAIgiAIDi4n3vkX9iXs6v9zaq745pNIEARBEARBb0Fsk3ak6R++WL1C89IndYVmxpMzxD1UWThtobiHej+DIAiCoK/h12hw0hcv523823YQBEEQBIcwYdAEQRAEQdDnCYMmCIIgCII+Txg0QRAEQRD0ecKgCYIgCIKgz1DxBScRNmiqoiFBEARBEAS9h6Z27JP4HZogCIIgCHo9YpuIwFBxfy5xyykIgiAIgj4ALBenZM2whEETBEEQBEGfJwyaIAiCIAj6PBUGDX5WuP5PCwdBEARBEBwc0ttORdigcQOmLEGP8pMv0/hpX6aVFjxQbPrOJ2n8TY/SJgv3GTo1Xpvo0ZvG0ye/0+d6GQRBEHQaf26miK3QhEHTMSvpy9PG80W2nhx4YyUIgiAIDh/KRowbNirN1MTGi/jDoGmfiXTVk8/T8yYL8aefly/Mws8/eRXnCIIgCIJg/+EGTC3FFRozavAKOsnGR+mTpVWbL//E0hJexi0gz1O4FaQrQGmZ8u0iDz96f1LP/Z1cF5JbOentGb1d026bvpP27ZP06MZimZpbPaWxKKT7rSRrh+pDQqkdM++Q7AWyMipV4+uslDFy3R5OpNDPUt2QwrjWGwdLDoIgCPY/ZqqosFEDSYyb5qZiDjNq9rIEnWLkBfTFZAVn6bxz6I6Z5dtQd9ASusHyLKRrn5pNN3X2uQ8u8/LpVs/Dt9E5985o98JeAIbGzOfotoefpy++bwRH4EI+hWaf5CtNS+k2mk1TSkbSHUuJbrB+Lbz8CZp9yRR6+cPWhgXX0hM335Rf3FHHJbPplAWWzm2km6eU2ngHzfjBZKvzi3TBSBgc3A6ufanVA70FYMxY2z39jpnVRgUMvxlroEt1g4mXWTmR8tiPoAtuSNLrjGvNONzVB59NCoIg6LNUrM6I6aLGTelbTqlRE3SHEae9n86h5+jlwgX3Wvq4GBJgIk2+nOiJX71s4QY5+zb60ATzj5xM7z+b6LkNDVxWxdBYQu9/OL/I08ZltOSpa2nhZX6zjC/sH2ZDYs3LhQv1tR++gFOU4487p9iGCZO5V09k/dz0oyX0xOUL6aqsjRfQx7mfxTamdYKVtOzec+i2a/J6yqz8wR10zrwb8rZP+BDddnZerwNjZsrS99PSG+rr6nDs64xrOg4TT+dxeupl6uTeC4IgCLpNhWHDVH7LSVdtgs5SuK1xyWy+zPcSnppNU9Ceyz+eGwRg48vcxjtoRnYbhQW3erpxoX75V9zre2fk+lhm3NuB4cbteM681Wyil9ewjpunJHqn0OynikYH0qfc/ETB8Mgo3QZDmwoUbmep7iAIgqA3UzRs9KHgzJgJugqMGb3Nkdy2sLSDz7W0ELdZYGjUPHODNGtzJt18wLnwsLRJYUWma5wzb2mNXr11ZqBeuRVVer6mfBuMRR7qdsq3s3Dr7WxLC4IgCHopRdtFbzllBg4nVK/kBO2iKwjnTJmcrQzIrRfzN8bxdHzhNsdK+vrNPbTGczbrlm9pqVGTPaQrt23uoBnlB2ALD8x2jonnVTx/wgZDu78RI7d4nqDZj3s7NtGj/5Q+FKy3wgrP6jC4vZTWc85xx3Ofrqp9vkZWoq6lyX4bTG5xmZfZtOE5HqP30+TCrTjzB0EQBL0EN2CKhozaLfuSZ2gyQybJFDQIX3Cv0Ydf/bbFTb86pZMrNH7Rdh3L6Ph5Pb3Gw0aNPaSr3/LBw7BL6bY16S2iGfRcYph1GjwczXU8N9P1scx8jt5/Wnsa0Q5bQZIyNxFNKT0ULIbKKTT7klzvlJtPSYyUBM67dB5JXjGkOLzw8vTW2jKiZIVmxPtu0IehPf2ul+mUWKEJgiDoXZQXW8yQcbul6f67fsE+/6J2nrDmmn8Ud8aTM8Q9VFk4baG4h3o/gyAIgqCv4ddo8Na/+zhv1UapJVmhwYPAYuzwpim+5RQEQRAEQa+iyjbJF2LyZ2hcgiAIgiAIejW5IaNghaawGmP+MGyCIAiCIOhVuBFTtls0bLecNKC3m8KeCYIgCIKgN1M2bNigyYyYbKWG3bBogiAIgiDoVbgRk9griTTnCYD9sULTZV554xX63ovfo4effpi++vhX6YEnH6CnnnuK1m5aazmCIAiCIOgaRQNGycP5LSes0LgxE99y6jQrfrmC/vUH/0pj3zKWPvYXH6N58+bR1VdfTRNOm0A/XP1D+u7z36W2vW2WOwiCIAiCzpEbL7kwYr/4Co0tyYQx0zVgzLz25ms0a9YsOvfcc2ncuHE0dOhQGj16NJ155pk0e/ZsGnzkYPruT79rJYIgCIIg6BRmuNSI0ayrMvobNHlCniFoH9xmWvWzVXTppZfSiBHVv4bb0tIi6TvbdtILr7xgsUEQBEEQNA5sk/qSP0OTGDN4SDhojDWb1tBZZ51V15hJmTZtGv1s7c8sFARBEARB4xQNmLI0Y3XGjRlZqQljplOs27COxo8fb6H2mTBhAm18fSNt2b7FYqrBP3fjP4UKf/DYJTbRozfV0YN/mM7+26giTym9nA9/DFmVPn7al6n8f95BEARB0H2KBkxZ7KFgwBFmzMRfHzTOlq1baPjw4RZqH9x6wrM1O3btsJgKNj5Kf3/vtXTt5UR3/KCrpoEaMuOnTaHZVf8aDWNl5nN028PP0/NPstifSdYaPtfSQqQncpX9GeSI932xEA9Zij/TvHwyTdQsQRAEQdDDFI2YVOyXgvOVGTFmYpWmYQYOHEhbt261UMds376dBvQbYKFaNv1oCT3BRsFV591G59y7rIurHfj3ahgZC9kkqWXlD+5gw+PjdMFIixh5AX28WwYUw4bYTTcT3XZemDNBEATBfqCDxZbSCk37mYNaxo4aSy+++KKF2mf16tU0cMBAGjp4qMWU2UTLlj5B157ORsHIyfT+s++gv//OJkvbvxx/3DlEa17mFqTcQTOyW0mfpEc3WnQFKx+fzYZYYiQFQRAEQY9idkodkYeCfVVGFmbE5XDQEG899q307LPPUltbx78xs3TpUhp/UjvP2/zk6zT7qWtpstzWGUGTp5xDTyxdVjIyuo8YLx2t/ky4qnQ7iWj2JXWej5HbZOfE6kwQBEGwH4FtUl/ka9sZMGyQELecGmbciHF0zLBj6KGHHrKYapYsWUIbX91Ipxx3isXUgltB58z7UPYMyojT3k/nPLWElrWzMtIV8PzLwsvT1ZfxNOXmJ4hOOp7NqGpGvO/jdC3dQctqnrPZRI/eNZto3g2xOhMEQRDsR4oGTFmybzn5qkx8y6nzvOd330Ob39hMd955J61ataqwWoPbTPfddx+t+q9VdOaEM6mlucVSyqykZfcSPXHzlMzIGH/JbHqCX0t+1PO3nSZelq++PP/kUrrtbKJzjjveUutxDh1fNlpsVenj7+v4a+tBEARB0HWKBkxZ8mdoxJCxBFmpCRoFRsrZp5xNJ446kZY8voTmzp1LN998M11//fX0wD8+QIObB9P5p59PRw05ykpU8JNldMfZt9HS5DaPyIJr2cj5enarR78u3bNfjV55/xSaTbfRDZlRgm9JFetYef8Mbt/7aXLBoOF8/1RcVQqCIAiC/UNuvFSJ/bCeixKLNF3j7aPfTtP/cDpdcvYlNO3UaXTRey+iS6ZeQqedcFo7KzPADIMpk2tv+UyYXOdWT3v417bZCOHQHTN1xSf/Wranq8yghfT8DRckdY+g408q3pKasYaNrUIe1vKdm2J1JgiCIDgw+MKLPPdbK03/eM9z7LOvbbOIw5vnL/86StKMJ2eIe6iycNpCcQ/1fgZBEARBX8Ov0eCtX/oT87HZUoGt0Chi/MjmwFL+1dlPHqCvKgdBEARB0FeAvVJtzIBmTdunr30cYMHrgPGTL9MU/CBb8qu1dPOU6p/rD4IgCILgMMaNmlppdkNm3769InvNPXAcz8bMF5NfrcUPyhE9tyFWaYIgCIIgMGTRxd1aaRZDpmTUHFCDZsIFpd8veZleforolDHxoGkQBEEQBIrYKu289BmazJDhKHb37j2QKzQp+PbNDLrj8oXZnyAGQRAEQRD4YzH1RH6Hhr2C2DhIyGIOJDBm9PdQll4Wv2oSBEEQBEGKrsS4leIhf5V+hwYC3D1QrKQvT2Nj5qTy76H0LV554xX63ovfo4effpi++vhX6YEnH6CnnnuK1m5aazmCIAiCIOgaVfYK0LCs0BRJMx0ANj5Kn5w2g56bt5Se78MrMyt+uYL+9Qf/SmPfMpY+9hcfo3nz5tHVV19NE06bQD9c/UP67vPfpba9Hf+BZRAEQRAEjWI2S5P8Dk2JA/w7NJt+tISeYLfwH0aQmx6lvvI9Jxgzr735Gs2aNYvOPfdcGjduHA0dOpRGjx5NZ555Js2ePZsGHzmYvvvT71qJIAiCIAg6Q/5ITCqM2S3yte1CAjsad2DAPz8X/rvIpY/cesJtplU/W0WXXnopjRhR3eKWlhZJ39m2k1545QWLDYIgCIKg25gJk6/QiA1z4AyZQ4U1m9bQWWedVdeYSZk2bRr9bO3PLFQGzxElK1Qu93fjbyjldl6dP7L8yZcL9VT/kGHxP5/KbVl5f5JWV0cQBEEQ9AyySFPArBmWZv+6k74sUT1BA6zbsI7Gjx9vofaZMGECbXx9I23ZvsViarl2QbJK9fBtdM69MzpvKIghw0bGJbPldl4NMGZmPlf4debnZpYMEtExhV7+cNKe5Bkn/F3FjHuvpYWetuBaumPmJ+nRjZYhCIIgCPYDNXeWjMLXttWwEY9sg47ZsnULDR8+3ELtg1tPeLZmx64dFtMBXf3V5JEX0BfNyKhi5Q/uILr848mvM19AH7+c6I4f5CswKx+fTTRvaTu/B/R+NmauoszEkX8Ff4JeDoMmCIIg2G/kVkpZKr7lFHSGgQMH0tatWy3UMdu3b6cB/QZYqAM2LqMlT11LH3/f/n+a6PjjziFa87I9iL2Slt3L4aXFB7XTFZwR77sgN2bAxpfpOTqHji/86nMQBEEQ9BQwW8rkJg0bNHlAcTdohLGjxtKLL75oofZZvXo1DRwwkIYOHmoxtdwxMzcg6t4y6iZivNy7rPrZGiDGyRN0Snq7SW4p1XtOZiV9mdtK824o/Y1FEARBEPQg8o2mst2ixApNN3nrsW+lZ599ltraOv6NmaVLl9L4k9p/3qbwDI0YEkQz6j3Y20XwzbKFl9/BenPjacrNbDqddHzyzbLSasuED9Ftlbe/8DCz/l3FFw/ASlIQBEEQVBEGTTcZN2IcHTPsGHrooYcsppolS5bQxlc30inHnWIxDSLPptxBy3r4G0QTL0sNp6VirJxz3PGaOPJ4OqWR52EOkR9FDIIgCPo+zTU3mDiiJi5ol/f87nto8xub6c4776RVq1YVVmtwm+m+++6jVf+1is6ccCa1NLdYSmNs+s7fszlzLU22h3Px7aLxPbxis/J+/Q+tG7IVlon0oXnn0B0zk3p+8nWa/dQ59P7TLA++KXXJbDplwfOxMhMEQRAcGPxOUypG0313/4CDpZQmojVXPi7eGU/OEPdQZeG0heL2RD/xo3n4nRl8NRvfZsIDwHhmBreZsDLTvjFjt24slIOvRuffJoJBM+XmU4rfMCqDlZOa529SPfZHoE9JgOjyhZUrLPidmRn3WoDOodse/mL2jEwxLaGOriAIgiDoLH6NBm/5uw/yNrFgUthuUYPGfoeGmvbZLwjvozWf+BfxhUHTefA7M/hqNr7N1N4DwEEQBEEQ1Kdhg4aRH9bTX59hkXf9zEFjDBk0hEYMGxHGTBAEQRD0EPgvJ7VW8ldKPBQcBEEQBEEfJTdqwqAJgiAIgqDPwwYNnppxAe4GQRAEQRD0XnR9Rm9ExQpNEARBEAR9FjVnqm45caxaPEEQBEEQBL0It15SMUoGTdx26g6vvPEKfe/F79HDTz9MX338q/TAkw/QU889RWs3rbUcQRAEQRB0ncSCcSwqMWgSI6Yif9A+K365gv71B/9KY98ylj72Fx+jefPm0dVXX00TTptAP1z9Q/ru89+ltr0d/99TEARBEASdhO2W5KHgoKvAmHntzddo1qxZdO6559K4cePkl4JHjx5NZ555Js2ePZsGHzmYvvvT71qJIAiCIAg6wz42WrDeUvd3aLJgMT5oENxmWvWzVXTppZfSiBHV/2nU0tIi6TvbdsrfIwRBEARB0AVqbJU8oln8Hg6jptOs2bSGzjrrrLrGTMq0adPkv56CIAiCIOhZmtWK0YUbsWf2xe2nzrBuwzoaP368hdpnwoQJ8seV+K+nuuCPJaeNp/Gp3PQobbLkzoI/kfzkd6pK488wkzrub+f/u71N5Tz4x+1GdQRBEARBdymZKOk6jDwUrBHpNoyaRtmydQsNHz7cQu2DW094tgZ/XFkF/kl7/CWz6ZQFz9PzT+aydMoS+vpPLFODwJCBkVH5j9j2z97PzVtqdSyl29bMqGOQcN5LlhCdbUEHxszM5+i2h72dC+nae2fUMZ6CIAiCoJs0peaLY/YKO83U1MSuveBnCYOmcQYOHEhbt261UMds375d/oW7lpX09ZufoGvZmLlqgkUZI973xZq4jph4mRkqZUME/GQZ3UHX0sff57fJRtAFH76W6N5l3IoUNXxowRfp4ydZlLFpw3Ns5LyfJo+0CJpIky8neuJXL1s4CIIgCHoOtVTYNVtFRRJk01xI9JfkCBph7Kix9OKLL1qofVavXk0DBwys/hduMzImd9Jw6TFGHk/n0HP08kYLZ8ZMrYEFRrzv43TtU7NpyrRP0qNSZiUtu/ccuu28iZIeBEEQBD2KGizuUb8JHFmhqRHJHDTCW499Kz377LPU1tbxb8wsXbqUxp/UzvM2Zx9Px5t3vyLGyx20rO5trPaNGWUifWjeOew+QbMvwe2tGXTH5R+nC7IVmyAIgiDoOcQ6MRNFzBV/me2iKzQiyUtKBI0wbsQ4OmbYMfTQQw9ZTDVLliyhja9upFOOO8ViKnjqZTogN2xGXkBfXHAt3TEzeaD3ktlsmpxCx8Mg2fgyPcdOmi7P4tw7g/1flttSeN5nytL309LkWZ+FVO85nCAIgiDoJmbNuAHDXhWj9NcHRtVzN0Fd3vO776HNb2ymO++8k1atWlVYrcFtpvvuu49W/dcqOnPCmdTS3GIpJSZMJjYx2lk16WEmXJUZIpClWG3xFSIYPEkaZOHlHH/5QvZfRbip9PKvniA66XhKv6w+8fSq53CCIAiCYP9TbdAEnQJGytmnnE0njjqRljy+hObOnUs333wzXX/99fTAPz5Ag5sH0/mnn09HDTnKSlSht3CwKvLlklGD1ZAsTr4q7c+t9BCsc8rNRLddc0HBQGmP449jA+jev0/asYke/ac72OiZLAZPEARBEPQkshiTrMiUCYOmB3n76LfT9D+cTpecfQlNO3UaXfTei+iSqZfQaSecVn9lJgHfZnq+fCuIBbd2PtTJh4X1a9tTaPZTRE/cPEX0pF+plq+Iex0ziRY++cVOPf+Cti6dR/b8jNV10kJ6/rIwZ4IgCIL9QDvGDGi6/+4fVt5g+sUn/q+4M56cIe6hysJpC8U91PsZBEEQBH0Nv0aDE+/6oLj1noqJFZogCIIgCPo8YdAEQRAEQdDnCYMmCIIgCII+Txg0QRAEQRD0ecKgCYIgCIKg7yI/sNcUBk0QBEEQBH0Z/T53GDRBEARBEPRN7Ldp4IRBEwRBEARBHyX/tb0waIIgCIIg6APIwzL8TsRiQRg0QRAEQRD0DWDHqJOJEwZNEARBEAS9HluQqUuH/+UUBEEQBEFwsDnpSxfU/R8nECs0QRAEQRD0XeTeU1PHKzRXrp8r7qHKV8beIu6h3s8gCIIg6Gv4NRpUrtDIbSi9FxUrNEEQBEEQ9Glg0oRBEwRBEARBHyV/UjgMmiAIgiAI+gBN1JT+Bo197clNmjBogiAIgiDoM8CAScUJgyYIgiAIgt5Par1UEAZNEARBEAS9ng7smTBogiAIgiDo+4RBEwRBEARBnycMmiAIgiAIej3t/e0BaJafC66QIAiCIAiC3kJzc3N9aWGpMmYgQRAEQRAEvYUWNlxamlvYeGmhFpdWSCu1trTCoCE1YpohzZkE+4tl9IWx/ekLyy3YaV6hb3yiP12x6BUL9zyvLbqExn5iIb1m4QPC8s/R2LGfoy4PC9iwkK4Yewl9Y4OFe5z9P/ZBEARBNTBksBKTGTMiMGbUqIEZY6syslyTSVAPvaiNZaMklbjIBQ0hhhvPmbLBWDLoxKhEvtuXWYxSZWxmeVNJ8iy/vX5aEARBXyEzYuQWk/rdmIEbSzGdAsbMOJo5/mlav35XLsvvJ3r8qUPmIjHqwodp/d0zaJSF+wxjZtA96x+mi8ZYuNdyE80ZfxnN7cgIns75np/a7moejJmJ17yLFqfzcf1aWkCP0DPZStVNSTrSGqg7CIKgl5EvwFSLGDTy5PC+fezmr6CKl2jtYqI5Uydb2MCFtGQAFD8VV9xKWYfbI55evE3S2Cfqp+TWlecpXPR8FSCT2tswVZ/qXUd5FaD99vhtmIX121NJaaVr+g0Wb3TQB2/j8qwfPMblW0626vGNtK8Vbc/rYCmtiBTbwcYs7/+cBsrXYcqsp+nUa+7t4BbbSfSnN95Pq75Sf0Vl3ZpFRNdNo0kWVkbTRXfnht2kWZ9N0kfTuPFEj615ycJBEASHBs25MQM3kaCCE2ncdKL509t/1gMGwPTn76eV9ql48XU30PSSUTL/caJbLH3lXUQzb8zTJ83yT9OQp2nO4tpP1I9ds4amZOUvLLZp0meT8ru4/kUF/bhIT7yGaMFyz8N1WFIV3W5PBctvZ+OA8jFav/gmSzE66gPgdnyJ7rQ86UU75Qb6VpZHVycmZkYHLvx5HVhpO//WZEUEBhIbWnMWex4uz/s/p4Py7TKZ/vSuFfSljlZK2Fi+evxl9GAdnSecdCFRw3WCZbT01gqjPAiCoK/CNgxozo0ZX5vRV1AFLmC4qLGBkn4qL6zA4IJxIS24MV+xmTSDL3SL19A6C4M5V+bpo864mNPTWwQpk2nKdbWfqM+/6/LsAi7laQWtrSzP9U9lYyGpf/nTN3D5O7t4a6b77akao44o90GYfj/dcuFoC9TjJro6yzOa3nseGwDPv1S94jHmbPogGyyr1qmR8dr3H6HHrnuaPl1tKdVSKt8Roy78DJ16zac6fIgZ82dVHQMRtwfVgEznY/UKma7KTeVx3NV4n4IgCHoxqbWiz9CYUQMjxyWoR+lTOYuswLhRs+ElWkWLaOak5AIz6TJ6rL0L/JgT6VQus3a9heXWSV5+On+i7hzt3c55hdY+b95G6XZ7SsgYdUQHt6S6yKgT3lU0jNq5pSS3czqi3VtSHYFVGqKZCzu4TYVVGp5j9VZz5JmnZD5itQsGTtGoWUYP2rM2YcwEQdAXkeUWN1ASFz7E6y0ngMRUgoaRFZiCwXJhcjvHpZ2HVeUCfyGNGws/Gw9sAJ2a3ebYxQaTZmsMGAKlB5fLt3M6Q7fb0xV6uA8Jr61bQTT9JDoBARgj01ck+6p8S6kDulueGXXhnbTg+c/TNwpLT7VMsmdunrFwu0y6XNpRXCmaTJ+ue1suCIKg7+AWCowY8ZtrDwWr1ZNKUAEu7qVnYcDyhZfRY9MvpvfCYJFP0+XnPXCBrv9MSaH8+jX0GN1EU7Irjz7z0Di1Dy7jFlOO3nZ5LH0gdfmTNN+8NXS7PRXIrRkeo2xlgsfnK2kbO+pDV8EqxSI6/7yz5VaXGjc27mDDU/StZIVFbnPdysaGG6rL7y2swHRUvjFG00VXvotmXtNR//SZm5nc/hzMq4rf3ZF2XkgfPCO5HSerbBV5gyAI+hpmwAji5xC7bNDAI2+J9FdQgT2gOTG7xaAynZ4ufM0ZD9EuLuTDakPxmyjpMw/yALGXn/RZu4Xl6U8SdWpFhD+J2y0H17+UDZIUWRVInwN6mo0HS6uh2+2pArftnqY5t041nZ8iOi9tY8d9aJy07VNp1V1r6R57pkbGAQ8Je/qNa+jUdIWF+y4PbPvtw6dPKqzAdFi+UWxFpSPwzE1xP5kxlN7ehLCuxX3i6+tBEASNk63IAPg9DBuG/U1f+98rJKa8KvOLT/xfca9cP1fcQ5WvjL1F3EO9n+0it5UeoQ8uP8QugnJLCBf3uNUSBEHQF/FrNJhw3yXqwe/OqE+RQPo7NOa6BIcP8m2e9NZJEARBEPRiCnaKGC5yy0kJI+YwQp6nyG9RyC/N9sVfBg6CIAgOP+SOkt5uSoUNmmThBplcgkMX/LKxf3tI5BC9JSM/zhe3m4IgCA45xIpJbBaWZpgzLrgvlUkQBEEQBEEvRuwaEdxycmvGHrJxCYIgCIIg6C3kxosaMPJlJhM4zTBj9MXI6gw8QVdYt241ffvbX6d77plPd9wxj+6++2/o0Ue/Rj//ece/ixsEQRAEQTskBoxYNYgywwbSnBkxmS0Dj/qCxnnmmX+hb37za3TsscfQxz52Gc2bN4+uuuoqGj/+ZHr22Sfo8ccfpLa2PZY7CIIgCIKuAntGV2jcxTM0uNXUBLsG0oSIsGc6CYyZ9evX0KxZs+jcc8+lcePG0dChQ2n06NF05pln0uzZs2ngwFYxaoIgCIIg6BpiyKgVo+HEFYMGRowaMia2VhN0DG4zrVixjC699FIaMWKExRZpaWmR9O3bt9CPfvQ9iw2CIAiCoFHMdPF3wZiBr7lgyDTrKg0kaIwXXlhBZ511Vl1jJmXatGm0atUPLNSbWUZfGFv+t+YgCIIgOIjAgDFjRvziqDGDsKzQqDFjbhg0neKll1bT+PHjLdQ+EyZMoI0bX6XNm9+0mGqW364/eNdVg+K1RZfQ2PKfaPqP6VX8ueb+JwykIAiCoIdIjBnz6ApNbsQ057ed5NdpgkbYsmUzDR8+3ELtg1tPeLZm27YtFlMBGx5fuvUmmnMd0fyn/d+ouwsbFJMuI7prbeFPNIMgCIKgL2KmDLvlFRo2YHJjRh8QDhpj0KBBtHXrVgt1zPbt22ngwEEWqkX+V+m6afTpGffT+bc+Sd1f1MDqSPFfph1fCVL5XP26Sn+VUF498hWhb6T6bndj7BX6xiem0nz2Zf+eLWmIT/IXygBb1VmU1n0JfWODJQdBEASHHW7IZD44skJT+JaTGjMwbCBBYxx33Dh68cUXLdQ+q1evFmNm2LCjLabMK/TM44toztTJRGPOpg9Ov4G+tOgVS+sK7Rsz05+/n1ba3x8svu4Gml7vdlTprxJW3nUhGyclA2jxZbR2quVZDmNsqhk9o+miu5+mOeybs9jSZ3H/JN7CNWVy5j9OdIvlWXzdIpp548G4ZRYEQRD0KtiQEVvGBBszaGolaIzx4yfSs88+S21tbRZTn6VLl9Kpp7bzz0LL76WZi2+iKZJlNL33vAvpscef6uIF/BGay8bMfLqJri4ZMzB0lt56IS24Mb/9NAkrQovX0DoLt8eoMy6m82kFrU1XS6bfT3/qXRNjjGjVuk4YY3XKzLkyaePUm9hwaqyNQRAEwSEOnqExka9ts/UiX9LODJkwaDrF2952Ko0cOYYeeughi6lmyZIltHHj63T66WdbTC3Ln76Bzr/r8uzPFMVwWPwIPdOV2yyLF9Gpi9fSguk30PTy7aQNL9EqWkQzJyW3eyZdRo+VjZSEwu0pydsDLP9crnPsODbmLD4IgiAIOon+OaUZMe6HURM0zrnnfpi2bt1Bd955J61ataqwWoPbTPfddx/HP0cf+MBHqKWl1VLKYNWE6LFrxpUMh0X0re934baTrJjgto4ZNTW3ky6kBcuTWz4iD9NFYyw5oXx7Sm4PWVqXgTEzfUXSBrTT0oIgCIKgk8gKjUvBqAkaBkbKBRd8lN7+9om0ZMkTNHfuXLr55pvp+uuvpwceeJCGDRtFM2ZcTccc0873i5Y/SfPZCMmMBpfFN7GRc2+2wiIP4Lb3AG8NZtTQZTTRjZoxM+jqmudR8JBuld5XaO3zROefd3Z260ceXDZ/Y5xI40q3k15bt4KNrovpvW5AbXiKvhUrNEEQBEFDiLVios/R6AqNiXrUqAk6z2mnvZv+7M8+SR//+HVs4Pw5ffSjn6IrrphDZ5zxx+2szAA2Jr5yQ8FoyJg0jebQDbS0cQumAnswdzEbNWYMTZq1ixaPRzi55TN+Wna7K4fL3ng/UbJyNHfNuzq5QsM6roRhZjpuX0ajLrxTjSyv/8Y1dGqs0ARBEAQdsK9kpUiYLZqmRx54EYaNgodrxNlHq/5c/3foyvVzxT1U+crYW8Q91PsZBEEQBH0Nv0aD8fd+2J4BxkPAe2nvXn0Y2MPN+/buJREOZAlW+MCgvzfin/4hV3Trq8pBEARBEByqqK3i7j7aC9lL1AyPRCaWDm+s2AEA37i57unkuZGn6dRrxsXP5AdBEARBkJDfahJDhu0WWaUx+0VWaPZi6QaJiRww8KNt8kNrTu0DpEEQBEEQBAAmCpstYsSk0rwXBk0bpK0gBw37tsupJ5R/DC4IgiAIgsMVMWRc8ErDLM2yOgOjJpE2lgOO/8ia/Ynip9v5Qd0gCIIgCA4viisyElGIa9Z7ULkh07b3IK3QTPqsPUOzlj74+Lg++WDwunWr6dvf/jrdc898uuOOeXT33X9Djz76Nfr5z1dZjiAIgiAIukJqvLjwJpNmj5SHg9mgwcM1B/QZmhrsP4zWvGThvsEzz/wLffObX6Njjz2GPvaxy2jevHl01VVX0fjxJ9Ozzz5Bjz/+ILW17bHcQRAEQRB0Bv02tjw8I3ZL+SU/rJf9mB5+IfgA/7Aefvm2uBqzjB68ZhGdf9KJFu79wJhZv34NzZo1i84991waN24cDR06lEaPHk1nnnkmzZ49mwYObBWjJgiCIAiCziNmixsziXC0oP+2DZ+5mWFzgMAfMKa/Qjt27FRadddauqfmH6J7J7jNtGLFMrr00ktpxIgRFlukpaVF0rdv30I/+tH3LDYIgiAIgkbJjBhYMLJao5aMhvfZv20nRg08B86cYfC17ew3aFT6ijEDXnhhBZ111ll1jZmUadOm0apVP7BQbwP/5RQ/ahgEQRD0TjKDBsYMjBhsxajRUHMzjJlmSDMC1NwEtxllgwZ46aXVNH78eAu1z4QJE2jjxldp8+Y3LSal9heTRW5fZumNo39gaeVr/mU7CIIgCPogmUEjXhEYMwALMc24HQJpFbeVWlo1HDTGli2bafjw4RZqH4wrnq3Ztm2LxdQyZ3GyWrX8fjr/1qmd/tXkURc+LOVX3nWhxQRBEATBIQDuIhUEpgw8mUHDhkzJqAkaY9CgQbR161YLdcz27dtp4MBBFuqAMWfTB3v0V5P1tlL7qzdPFVaKaowp/72gqnRJ+xwtz/JcQt/YYGlBEARB0E1gvpRxw6aZLRoxZlpac6OmlY2aoDGOO24cvfjiixZqn9WrV4sxM2zY0RbTAfKryTfR1T30TNHy28fRzPH5/2YtHn8ZTSzd0nrsmjU0xdKxwjN/OhsolkYbFtIV01fQguX5CtKq6WWj5Qaa/vQ0q+NhumiMRQdBEARBj2HP/yYiz9Bk0twsz9JAgsYYP34iPfvss9TWwI8RLl26lE49tf2fQJ4/PV/9wK8mP2bx3YaNkS/deiEtmJH/b9akGbil9fmCQXL+XZeTtxDfQDufVtBaS1++kNtz3WdyI2XMDLr6ukU0c2FqFN1Eiwv/zRUEQRAEPYUbMLoqUzBoLEcRfdImaIC3ve1UGjlyDD300EMWU82SJUto48bX6fTTz7aYagrP0EAWE03HbRxLD4IgCILDnbIxU9+gCTrFued+mLZu3UF33nknrVq1qrBag9tM9913H8c/Rx/4wEfkGaVOMWkazaEbaGlYNEEQBMHhjBgu1cYMpMKgidWZzgIj5YILPkpvf/tEWrLkCZo7dy7dfPPNdP3119MDDzxIw4aNohkzrqZjjhllJRrntUWfp/l0E02x+0D6lexGVmxeoWceX0Q0/kSSWituD9XcQuqAmltUFbexgiAIgmB/oA8E+2PBJWMGPz2D73Tjv5tE5E8q1Q06z2mnvZv+7M8+SR//+HVs4Pw5ffSjn6IrrphDZ5zxxw2vzBSeoWGZeM27aPH6z2bPtXTE8tu97DiaSffTyuR5lkmz1tKC56dmuqc/X0zvEPwI4uJ30cxJVseky+jUxfHgbxAEQXCAyFZoLJgYNU3//H9e0J+mYYPGPOL+5DJ9JuTK9XPFPVT5ythbxD3U+xkEQRAEfQ2/RoO33v3fzU4xm4VdGDZu0DS37d0rz3yI7NlDe8wNgiAIgiDorcCYkTtQJs173ZgpGTVBEARBEAS9CdgugnmaklezPj+DZ2dMzB8EQRAEQdBbwAMx/meU2b0n9egKjTwzgzS4eEm6ZQiCIAiCIOgF6HMzJmKvYCspYrc0S8Ai2VG/eIIgCIIgCHoHqUEDW8UixbgBtkJjieb3xCAIgiAIgt7Avn17xT6RV2qvyHsf/sKpSf+/yb72pP74AeGusG7davr2t79O99wzn+64Yx7dffff0KOPfo1+/vNVliMIgiAIgq6QGTFmyODFAXOJDRr8uh7E/3Wb/ZCgczzzzL/QN7/5NTr22GPoYx+7jObNm0dXXXUVjR9/Mj377BP0+OMPUltbfB0+CIIgCLqCGjN7xYUho8aMJIhRw7aMGjCQ5haXFikcNAaMmfXr19CsWbPo3HPPpXHjxtHQoUNp9OjRdOaZZ9Ls2bNp4MBWMWqCIAiCIOg8vjojBkwqMGvYbW7Gr+uJMYPVGZdYoWkU3GZasWIZXXrppTRixAiLLYKVL6Rv376FfvSj71lsb2YZfWFsf/rCQfxDTPkLh9vz/50KgiAIDm8KRkxiyIjD6foMDYwaeX5Gn6GBgRM0xgsvrKCzzjqrrjGTMm3aNFq16gcWqsOGhXSF/ddSJp9YSK9ZckMs/1yxPMvBNE6q0D/ZTNt4Sf6nl0EQBEFQormJ7RM848v2igisGEYcNmwyg0YFmXXFJmiMl15aTePHj7dQ+0yYMIE2bnyVNm9+02KKyEVe/vBxF61fn8vK8x6hBzttkNxEi13H8vtp1fTeZ9TQ9PtppbdR/vQyN2omzeK4zvxxZhAEQXBII4/EYNEF9orFqU2j22aJNYPGjRms0gSNsWXLZho+fLiF2ge3nvBszbZtWywmZRk9eM0imsPGzKdLf6096sKHa+I6xZgZdPV1RPOf1ls4YjgVVn06uMVUs+JTXE3ptL4qJl1OC6Yvom99/xUJFm85mb5F6epVaUWn3Ta+Qt/4RH+6gstDj+epaV/FytYVi7Q9QRAEwcEFj8SojaI2S8mqYRuGYwqrNBwTKzSNM2jQINq6dauFOmb79u00cOAgCyUsf5Lm0000pTuGSwecf9KJ5uskkz6brRZBFl+3iGbe2MnbYA1y6gmjzVfL/MeJbqnXhgba+Ng1a2iKpa+860KaP/1zlNk0uNU3/QYxKFXHWjawLC0IgiA46OQrNHbbKbNo1KbBj85oVGrUSMagEY47bhy9+OKLFmqf1atXizEzbNjRFlNi+kl0gnl7lOWfo+m3XkgfPKO+sdAZJk29iWjxGlpn4Z7gtUWfopmL2zfo5lw5g0aZv6M2VKWff9fl5OpHnXExnU8raK2t4rz2/Ufoseue7t5KWBAEQbDfyW4zyQPB+cPBzWLjpMaMrdgEjTF+/ER69tln5Z/KO2Lp0qV06qntXDF71Ei4gab7rRNZeXiYLhpjSZ1Gb9lkt2JYX4+w+DKaaDonXkO0YPlnM4Oj83SvjevWLDJfEARB0LuBASNvtmPwjSci/NG2PBTMFkzNKk3QGG9726k0cuQYeuihhyymmiVLltDGja/T6aefbTElJk2jOWyELO2xB3eTh4JZur7yAENhHM0c/3Sma/3imyytm6QPBa/vrsG1n9oYBEEQ9A7EiHFjBhvZsoMf29urDwXDfHFDJgyaznPuuR+mrVt30J133kmrVq0qrNbgNtN9993H8c/RBz7wEWppabWUMpPpT+W5jtqHVfHQbRYnD6527yvOo054V2E16LVFn6f55q/lJVq7mGjO1PwbR8ufLq5+dE7f/qDjNnaE3KK69fP5uG54ir7FOoMgCILeQmrMuKuClZrmfXvVkwpvrHDQCDBSLrjgo/T2t0+kJUueoLlz59LNN99M119/PT3wwIM0bNgomjHjajrmGH8CpBp8mwkrCzBqslsnuB3z+MX0pz35bId8oyi/JTWXLqY5llTLZPp0qU1LqbT60Sl9+4MG2tgRkz6rDxJPMh03rqFT46HgIAiCXoNaJrBR8FZbBSszuN20b+9eanrkH3+2L1uVERcrNk30w4/cL0WvXD9X3EOVr4y9Rdye7Cd+ZwZfzW73AeCgl4Ovik8lqvgafRAEQXBg8Gs0eOtXptPevfvkLsheluxuiNxUaqJmsWxM1NqBw5ugywwdOoyOPfa4MGb6Mgfga/RBEARBJxH7hG0Vf8FuwZ2mvXupOVuuKUkQHF7oj/f5Laux01d081tXQRAEQY+CBRc3YgoCO0YMGmTKE+APgsOPyfRp/4aUSHe+dRUEQRD0NGylmC8HcW6/NMOAkYBldQmCIAiCIOg1YMElFbNYZMvhZrdsNM0ySSAIgiAIgqB3IGZKItioyaJ2jBo0kmCGjWcMgiAIgiDoLbCNImJWSrY1+6XyXyjjZ/WCIAiCIOhNZKaMWjJGbrHE32oHQRAEQdDrwSqMrMZYuLz4UmPQxOpMEARBEAS9jsSYkWWagsHit5ySTHnmIAiCIAiC3gEsFV+lUYpLMM1te/cSxH9GuPBzwkEQBEEQBL0AMWayZRf9y6Zm++umpqZmavraV1Zk/+XU1Nysiez+9GMPW6EgCIIgCIKDy3FfPEcXZ+SuElZr2IsFGfxSMP76wFdosCqTShAEQRAEQW+hfLupqYm3viDD0rx3r95mgnUjt5vMDYIgCIIg6C3AoPFX2ZgR+eqC/5AUPFrT1Iz7Uc2a0Gwu4tlFHlZnb3OhPBGs7OyBUWQixew+l+sox6XCG6kvc0uIXSYdspB6xMnyW1nkkn/g5Pzy55tsqKV+kOqRNlifcdtN9IhAt2q36tgD7UVXHPPDxZ9lef0IN/vY+m29RCQ/DEkThLP+AOQTRxojej0vpJl1trS2UmtrC7W2tGq+pJzvn0rhdLQHOqRt0NXC0tzCrorrgQvKYyn7G21hF/Ge39uLjTlcGG/UDX9538DVeNGTkrQBrurWfZW3XVKQK6M81um4QWS+7tkjfUDY94/rbBG9KlLe9ivyoh+or1hjEelF0pfKMCj31yjnz9E4bYP6Og3rbb8U9oN5S2AsZK5gbDBHEtJ9V9iPpfqgo56bi8SoXxOx1Tm3R883+FBWF6swaZG5oOjPm5rGV2H9sAJy3vSxYPE2WtNp9+5dtHvXbtq1ezf7d3Mxne8y53ku7dmzm2UP7dnN0rZHjr1mPgZFJ7utrf2oH47vfv35+O4nx2Rzcyu7ONab+bjT+ahzMpnzXN7HDa54OIPXLfuG4/P53pTVrS7vV7TR80O/+01QPtfP57JSHsd9yOtlgLcb5w+UzRLYg3a19rO+s6A/hfNqot/JYirSqtBcvG0kO9ptbff+FvrjruFt9HNc5qKvHm/CGy2kisTxfYYQvKLfw3I9gYt5wuMuKlwfn8ckL6dZnjLaHrRF5w7y+7xBJWm66JM2aJrq1nbkYQlpGPrxStsk+tSVsDTCXCYrqx7TiSj0zXSYIE6zaz7E+TySXwrmmGIDxF8WnUjpTshEXlqWN4nIu5SGptQB6eppN5t1xz3uJJ52sDrSbUYhDbCvlKVdkvan5dJmVTWxEIedZN4yotJUi3B9BbEDvd19BB2O14UJYn4VnSgycfRtoHLTY3q9rize8qTk5V2Z1Ss+RUqIAtUDvN0WsDyemiP5MKHbdFLLQQNBvAte7qKMiW8dtMf7np8wEnGj1P1arFhXJ4Q36ocOvJK0RoQ35u9MGzA2pfGpI9KqOvHaYq03zSck+Twer8r4pC3FeAiUAfabryFUVebtSUSftS+f//XrQbJeHPzDHj4EqMgKOeYuBBm1hGx1HppRIoJISRKyMUpqTpK1YknXvPCIXxIVyS+K4bfSkq9CN/KJaFhTUm2MpQGkiFg7RDoiLyRBuA2UyoopHZco5O84e5JXfem2BoxBMk7icDgZmgTWkfYRHgv7PsOmkF5DqtvKeL6kDakIki/NzHCiTAfJZDk5uZTr4IGxYZEmSlv1uIAriwbSUMmUZ85FTzRy0CZWccGPFzosfu20xqpriRxSNL4ooOBawOMcHWMd5GyrHqPepFGKdfEWnnIl0lakWXqDFLJWlktaBq/uBZUkzkIlTKGNsY8p/L4PJMxS15jRzNhAQwGpGoL6TaRd0p6kRV400128KPKmoL5QE9SZJ9FYDfSZF54sBP0J0IMY1K0XjESgw10RzWsFEkGkkfQ/N1oSf0mysWJUrdfVOeGNiDh4WXyjwpsOJc+f7DNtdaVoHvZhUzddRcPspGmJv5A/ia81qjRc0JMJR1l8lpaFq6lNrZ+3cVSH1s6vpA+WVIOk48Mgz8e2Nl0NlBVBEZ2vqsP7L1NR5pacpFnwiVxe2cGDfKV680RPtXT44Ki/jJSSCiWoSFaU14Dn0SxJxkRdmqbRokR8TiGUtLcM8vlYVLU5JU9lH/K2n702fwdojjxvVqJu0WScZFw9bKSBRBm8LnldGq8JGpcB1eZNKeXSPNikYtSqLWey+g823AiZj9pia54eD36c6IqUxmfNV4ohUZBty2jerARGR+o0F14RfsnIueRoyOPMLY5yEassqxmerAFGO8WF9tLbLdu+4nZTszaWGisHdmnSp7DSTK/sVDiIdL+GVcoXCUheLtUl9UnVvCmJRCO9hKhyEd1cX+GVpxdRbQWdqKtEVs7bLv4qfYbn4wuG3PYyqVmhYeFNHkZR1aBwU6Q16DuLGjI4UGoNGb3A6EqNGzQF3WXBq72wCW/wLsSJ1MmvL/Sj45f2ln1V+iukkfyK++Fq3qpynq8zgjKpIMqlc7iO7pDokEZoUNrp0fKCRxPlxX4IDG5dlTFDBqs12VzVPBk+B+UknQvibZZKPa5bQ/n8VThO35on1W/5pYDlFy+2VjwrI6JxWr3kUgo6K7BkOMW2smRKlDQoxUy3bmupiU/a2RAN5s+ylPNa+zK4A9IHd9WbiQyeS5YjAeqkTSoahF/jNaaM6pGtq7RseW5OyDKkkuYBSQlO1hy9BxsRGR5vqg5nfnyI8d9iz1348xIIw231cCJVcQWxE74cfIbWzVtrROZ2EdWcj3gWZrGoAlKdjELidoFuNtvQdmtrcwHu1kUmtVHuh6TZLueNnzyykwhcy5dhFWLU0rbIJBEXHp0oEpmh+lRMZUGwSUnLJtSJrqFGXxGtsrRC42EYWxYuGHpSkLfuT0Cz/ACR5X4cJOyXeW3zG7ea5OBJxgaaMv2J8AaJUg/HlMIaV84v8UkYERLn+f3l6RkdD6o0t+NsGU1Nqf4c7XaeJm2xNqm/bFDWGphpfG3+WnH9Wi+kAkuqk1oXUStUlayvTY8e5LA81lZ/NkFXYfxWk4ncZuL8yIsyrALzTedVrcgxKCRlpB6J9JqFbNciq7iaiq1LjuXO9IPcn/UJcB591QEJkqcDahtRgWYoZ6vS3aGqEtWaO6L9/NquDnveOUr7DahfXwq7Mu7wp/V7utN42zRn4/kPJDokaf+V/HzNx1BmzLSyK8ZMa2K4uKGTGDwQM3rKxk928BXGgysvj681rCglREdFPJOpNw+cQpUFVEdRU7XeeuS52de5ohl5+2pbWr/tpepwEjMvkFB6VoPfxNPk5fGWTeFaUbFIPiHkJfsQPkVcD5iCVC9cfRlSl4fULehw1ymFMz0FqmOz+v0CYiKfehEn6Ra2vFkZK69wI7zfJmLIiFFjhk1ykcniUQZAbdUrqZODeEu8hotxhfb5K4lTgYM4qRVBAa1AU+pJOsa6j+unF6nNK/mNrH3W1jwuT4Pkt/4gZePFwkl/64nXo16tT9Akd0qgwS5FoEL11iNN43rTcFkl2oUXXJuHWIWBAaMrM/nD57khh9s5Nt94jukD+ck8k7mm+0CqQP1Sj4bgz5CdY35g+XyreeEiMW++FEnKWnKaNcfygGJakpB4lRoteVQpr0Rn2eGpKCskY1A3T06ei7cdZ+90/rwbNZ3PQIoLELciu1cnLvZZQSTJ3LJGw/N0CtaRqspUlnRn1It3OkrvBFl/eJ/LHFY/8POvTF/eyAoNBEYJjJviKgyesk/dst/DKvpkvhye1p+88uygglT2NUmvEnxSlE+LKpmKJE4lhcNZVDmtMQrtLqjwQD23FrRZ2u2eLKIar1tdw3aoxFm05uAXp1VK8tJCKrqnZG9lbZEJom/zw1dE9MibX6Yfb9sklMNMQV2a7n64qlP0WqgekovboCs0upTvFxM1bCB5Hs+PF3tMC7AHzeCVbvO4YC7bSoyvyhQMG+SxQpnespReHInMWRh5CnFWTsLwl19ZfvM72X6yBpUEL/U7tel+cqilmNclrd793iZpe+pPDEpE534PI6Nkr6ScH3llj+2rbVcuVVi811motOz3sPsT4fMOj4CK+SVeDBV820/nIowYFzdq5NuAmKec18vztJL5pcaMui3i8n6ByAv6vR4VvCTMZD3Ouuj5JNAu+WhpZn9pfZqu84Mly5wqxRjkuF91JP4C5TDQuEJeq7aAJFueKjUJqsulYwr5K4twZFWbJFxZgCnFl8saXre4tq91qyK4J4vIqYiqbGp1AzSnprjbHuUcHq4q2ZE2S5fj2Un8NR3L03xewuXzMg6c/GSdin4KzV3xW14VL8vixoxIUh0OOohdYPTTCg5uPrDtoMZJwDKrkxkp2OpLdi4EaS6WRyrLxOOllKDl3Zf72xN/CR4tpAF25a1uHm9Ym/w8kIULr2KaRgDTBUfUe3vcZSy/F5EUH28R/RTowhsVRsqgLDdO9hkmg+9nxKHRiW5UyVq4uOs0VxPUdbJCjuVTb0G8PCjo6ASiXdoEXRKSV5KqYUl2v8dqPtkTeGNeJ2OSi2QT8nKqJxdNR9asnGoWNF7TxECCyPGiogYSMnh+DWv+Ypq3u4gl1gHFO8rTcXqK5s2HgFuVuUW/5MvyalqGJKjX0XwumpiGNYaRTrGYi5e3S1ycIEU4mEiigfEE0J4fGjVOXavW4tSYUcNaznHydWwVPd/5OQ8GjeaFK52CTtbF00DPreLX/Y4v3Wo9ec+0ziQMD4vMEQtnad4+aaNEZPnzTJ5gSHaMUvHl/QZZ0byiuvpQVt/5C28R93BZKS5uohRZrS36Rv4EZK0SIckLb6loEatDvRV5KyK5HhlyuOoYqstf+q4oD5KCXl5cic9ndB6XRjg69yW3zwEjqxVtELE2WVxZ4CimUdqQv7KKUZX7E7y/1aTlvawoqgVqTJWoS3QivogqaHrovuc0CVvo9QFEZebPXJB5DBkcuES78HsL+K2FXerKp2ROzz4tS+s4P1zW06+1H7X2a6V+/fS3FfxgzA5K6wGygyy6phGM5VH4sPN6UV+FW0b6XSG8URdIHd4m7zf6I1EJpQguL0afuZleS4MCHyNvs+q1OgxrhcTpCRGrDjgR6olPL8KsH5mgF475Uzd9NgS3TcQo5fF3AzV/VgT68NsrOmbu+m/O+EONQtLWrC6WLIwtPMgngn6oPtELYX9hXOEy0JPptLDr93LeNmk70qwPUpYFcSiT5s3qNYFuufXKY4HfvXBj3XWCtO/ZMxEmaHNaP0oU9CM+GXu0B2WcrF3WNpT39kMQhzRtu/3WhOURT7vk9SRVltCE+uk5UiX6wh5cgFGUW29lzeVNHqegnII+IYyIvI+55HlyF2j+fNXN65K31KmORnqcxZpf0yTGC7Pa9GKdxzmlNAmqJrSNW2jtbpLfkpHflXHBORGGze494mpelNf84kvCmHsqWAFvlfHFWDc34xzJInMMLouaO9wOa6n31VxVixoTF2T12nkAgjnrfrw4C/zweLzexvU5aHPa9CCfx/s8zdri7UnzM7r/WJDX8jjII3cO5HEIHgfo53jZZ5AKamJTnY2UsTxVOdGe8lhlYZa0Hrz0N1xYbEzSftb0m8WBz3WKfqmL4zByCCNdziE4l2BecAwXUp0Ydw6k5VlEO9LN1RVtrR/l1IiGLujU/Zy2k1Uw0FXHVcc32RjI23Rk7dNG2FsCjOkArNRVwS2U5XZJ30X0mqWoPjZofuz1VihMFcsmcTU+gxWIMWMHL1z94Ssc1Djh5/eP5eTPDBwwgAYMHMDuQOrXv5/EYfBzdCDQNmwkSdrkeSTF0tNyvENQjjvvFwfdcflOLOMTCIOV+a0uuFoTw7rU8bZx2BMlP1y8sUFZ1e2rH+Ii0vIBqJR28qc3PRGY7qyOLKt6siqRbmm2yf05iM36g7bgIJAVNTNicMtQfkhLXc6U5+fy2rZc0os6Jller7kVaHsZ6Y/1C/0QFwJd2jHNax5WKFq1AlSRheHq+LgOLN37QWmuFLN2set98PlglQnob/ocGYy8vD6tSz9550aMzikV5EMZH08UK5w0WIeky5hrum0E/WSvxwfGV8Zf+qHzRlc383QU1f0EL/QknWGKIcfGtURNyerCOVJvLijAXZQxcn/u5khWtLZUviwpxZ5pmlWj8XAtg9avrogl5u1CDOZsHlbYZdWmPfGbKyu/iserjlrwQ3q7+EMdfkhv166dvK90rvlXtIWsbazP+izzlV1cwPEhTy7kmIc+l82IccMGLkewDpyf0CrVJ60S/Yq2XzdZ2z1sddcKp8JFxiROh1HHTWtQjbq1i6rNd7iSC23SjepCRiuQpuGVa0JWuwVnxwzOn0hPy9cAFYZ4oVv8qEO8Qu41X8HhbZ4h88rxK+3gNqEfiYu2ypikgnGQsUjO6XhBIW/0Iq2ikXld0Of7Xfd9scOSjrohnI7yqh9e1aLjZOWydLiaR/aPxet5xvvDZZBHS0rZTI+R6i6meDlVAL/XAT2ZX3NIXA1JXfBxiawcBMnpuKe0fPjCa25EAdVuoKAokYCFNT6D9bDKvDfsaoV2YWL8YThcBLDsCiMHBzgEBz0GTn7dtp9+GkFLRR020Ocv6DOdcuh6nZIqToInajkpBtfC7se7hkxvgrUlL6Ie1W1iKVKcNzrZMEF0UrqxIAYEXJyELJ/1GAq1AnHUr5ot3rIBKZXUo2m8sbZImxKjSLDyKOsHiV9YxZCRk4b65dOgtE2rdss4v3jrhdwPCORLDUFtHGqzPkgT8vbkAoOCXUtjR/yK6YMi0SU+8ZvP4hXP533DWKN/aAua43kLxiL7vb1ibNp46DNhuGBweYfzo++Yz/4JXAwLjAF08kv2h5XFxQjl07oRlk/e+PVTmfMwnNR4EgOKx12y8gb6sD8yA4vzaqK1ncdOxwf5vY+8SUTSaijmyfLCzahNrxHkYld9iu5DtNz8BvyuX8vwy+YL5pnur6KIZqlKNlIWiFqIxcuYmfAIs5vnVdJ2IISx87Ary/O437W4Ov22l7RKEzlsTeCg6WB9MJay89yOHbRjx/ZsngDuNmfT40aPJY0XlVxaxgRzCOPgLuJY1JjhPkpc7kppeZub+XnLDrwpWT531THSsWCyBPTPvIzsRylodTC25+2d5td4T5cXxiobfwXtUZU2L0Q3IqwU57eqJL7qhXcmwN0E6MowbxZXJwy8zz5n/ZyBfYA4ySxvbLS9up/h4lwnb82XIm3kjegXR3XauUjODagH9UkedTU/eg0FWlbiRJfq1LagOdYeOV/l5yx7W3bVhBB0aT06z7wexFui5NX8SY9En4XcnyWCXEdZnwWQydCCrk9SrJxny/rFgmy2QmNFtFyOlxMl5iJOXPUjhzlykt+Nn++WpdbdtHOnfVIRI8ZuR9ltKTRgyJAhIkcMOYIGDhxYqAstyhrLg48Yr9fzOMk054D6vRwmk1+I1WLWcLGv0K0TFPp90qT1aTa0ynSbeByQ/Hixi8mXW725bhcpy7geP7ll7US8uaiDC0l+oPWIR/zSBugwV0AxaxnyaDs4P7vyzTYYknZBLRs0WVnRlxqmWBnI26nPA7B+P7BZ0C7U6v1yXXkYoSTd/OZRF1qsu97PzF9K8xICl/d2uHhdmmzj7H0wo0D3t+4jnDz8W31Snsu4YBx0bqtARwrGT41z/YQNfMxQFvr0J+z159zlImx9AcirtydYPx9HekFDe/TE9stNy2jDm8vo11t+Rtt2/TbrV9B9MA8G9RtKwwadRMMH/B6NHPJO2TU29cQVr7vwmkfnh10o2L+DDZntMGa2b2d3uxz/6ZzMjx8tk6UhH+9rGLt6O15XaXwlFX93IKszELv1xLPO2pBfvLApzAy0z7xAzh7yrnXl3JKIxFtHU1d87MoclDfGwMTOsVk4EcHyA9Ponsq63IXoWLKf++5pGaLSNTNeD+q2cGW6+eumAfbieMR+8PNk2hacQ9JrTSZyrsEHwEQXMP2FcUmAPj3u9VzEneUClt/yyF6Qd2kcmFS3CLcNruwX9nse88i5Lz0P+lj7uEteeatbpio91d9Rujp5WpLK5D6lHAY6Ck3/dP9z3E2nnFEHSrY+cHhLJyVJ8IkFQwUnend37lRDxsX/swS3pFAVDJkhRxyRGTQgUcs7IDkoOCz1IiFxFbiIy8N6UOECxmUxsWSiIQydEMtqQLfuUBY7WDLhdM+OtribShk9Qaku+Av6WLiQ6rTyhYMAcYnr2qV3tsl0cajYNuhLw3pweDsg/p9PYtDghGkXb/k0yOKGkQjX78+LZLeZSm3L9KNfEKR5/Yk/Dde42Kon7ah5tZ+iG05xk+hAFt6PckBqexCf1l2eB3IAQz/KQeQkwsL9QZ+8LARlxLCDwcEu+o9yvBEXZWRMzahB5ZLfBPp8zNWg0bLSbhboxPHhoie0FtrV9ib96FdfZf9W+sC7/5jeedI7afiRR2v5oEfA/n3jt7+mH6/5MT3+7L/yuas//c5RF9OA1mGyi2SkzfVh9zg5HnDREnevnPd2sOyUFZodvN/14uDHnxw3ybzC7Ma+VGmm/v2xggfpr8enGLUoi/8zwsUNBg3mra5KQQOrsWNAPeoH5bC3H7VqIAuzi9i8LYgwV7IiVTyZH3q9H2hE4dxRIbwptMVRvbpJ6yu7PobZuaYA9Mtb8brKLuisn0G9unLmBmYuaJvOAz03+lzIb82nmpTCuJRA//z4R30yBpxN8lse2QMcXx4FgFyZflwDzV80aGzLb5+jqEcNGh1jCbNIXq+b3TKSIm91Nc62SXwxPfeDyrB6uIFJgpCGdQSw5T5gkrgUd5KLXqzgegelvJD6QTZwthMzsQYgvx7cWmemE2mSwT2c3/0sWT2eJujaDNJyMX1ot++UxC99kvrzNmi85ZN00+GSxGX53S8C/dIw7atPZpk85i9IfvKTC2wmdkKQeIybuyp6oGh8evB4usLtzHw58GeCvlhfRRBG+12YQj/S9rJIXRBkR2YtkqEt8faA1G94GakbQWy0HQXBfjG3sJ9830qa7UsLq/J8LN0w1rCNlQiyaTgX7aM/JySS9F/0eX+kbjVk5OTDhqKe7Fi4fTq+1ibk1VJMuU4V3kiq9ED6QrRjzxv0vdV/S5NPezvdcvX/R1MnnkVHDztGdQY9BsYT44rx/dw1f0Nn/v5p9NzGe2gnG5My0rzR/YKAuiISkolk+zE/PpCeni88v58zMGd0RVDnL9Ls0pHV5XM+P2fl895r7zIdFc/StU25a0gbNJs2R9sFv4inJVKTR8Q8nEMczVbjimgw8XQF3k/mw35Sv+0/hGQ/lvws4rcyClyNT0IWzuMbw0u7pD4l9TdMTaHywHk4ie9SRRV6QKarKr2UtybMePkO+6HwsWEXBz9YCqIHnhxsEJ5RZckVo0adBD4BcsEtHm0RyohenPjloqQXVN6o1GB1iWtRGVpGdJqeVOTAR/vhZ9cvfPkFUPsuFx5pC/Kl6aYj0ZPlz8p4PNqj/fULaeUSZI2okZKtGiDOxkyNF9WVicV7Ho3jsYXoiNSOI4KIk3bmov319qtksD7UkbcR7dL6pU2WjQthI16Ny1KqyapAfRpkX1Z/lRTGvc5+ytOtLTIkPn75GOq4aftdZCtxyOd9tpUpCJaNxbDx8loGVUl7uF7/NCWfqKRd2jakI6M0S5sm5bO22XiKXk2VfKq7iX78q3vpfX94Jl009SJJDQ4MF511EZ1zxtn0izce0f3HcbIPxUVYd5LPUd+nmCNwLaelY27meRH257SwAiNzxuaJl4Rf8vr8zuZUrksadaDRbkvVIhLQUBZnL82YS95/Tc9fKKPZ4KvnikhZDavbBXyQ/ZiDqx5xEavHpvo1XWLNRRT8kiRh3wLxWTCPzWmk3TXlqhQFNfChgTmCyZG/dMhd8j2jOzE/4av4krqe/P0Cqzs+eWHPA9TFB6Xf3tC6taZaOI0TkEc8aS6L0gPE9JjwJsujrtUhruVDDNwsLduwAE0vIPk1h7i6UdFY5Coi3cYmFwyFRGMr46KhIlqXeq2OeurrkeUv9lH6DME+EFfDjuxjCO/LbKVCXNvnnCb7s6Jy6Q4nZK46vsmcAtKuvH0IuFd8aKMIvGnYxE/6Jk7Wj0RkXppII8WvzfL8ajRCtN9qCGFe+8UKwnXxq3ixcWPG2iIv5NQiUo/oRz2qMzVk82NH86//zXJqad0WxsxBAkZN/wG7aOOWVTLnZJ/b/OK9JDtU9qXsNxX/EAKQV+eEzQeU5bcY4TxP3KjJjRQpls0ZzB68kGBJvRZpX95wEeluIoV+SCTcRHgjToWbbxn3QB/7s/jE1zGyB4suPLJP3VW/5rB4cTWcikZ5OE8pIy20NqdSDlVTpbEdOpm911MY1OrOyb9tY0doXt1ZKjg4WWCoiMGi4vf39QFfPM1v7u5d8iAj8qCsVIgdnOnTBmB34SLgxozvP0kXkYDEye6VSesXLA17oSwNJwMWyQCsPtcpfu9b5mo+Sc+8llYS3iRhDooOzY+QilaftdVPYuKir7nkF18/kWmcXgyLosvRLjj5pRdNjYcu3kgbtCW6dUdAfXhZvVkbMG6+E7iA9BH7nSXd7yISp2k+HhgI9+dhqEpc0et+kOezaEu3tA7Q1nqbrf3WHydtk1xsrE+50cBi+XhjcRqWi5LkNzdJV/Kxg+gFyuKkCdoO0Z++RDf0Yjx1LDGuep9dx9fbiDpf+e335ZmZ4OBx3nvOpU3bf6R71KeXzQc9HvSc5/sT+xZpmAeYE3r8mtGC+eFzx45df9A0X2Fm/bqRqgSrT+cO5oeGeUodeHRSu8Mb9ak/kQJJf9hJelYH15e74shWwRCpHnhs3CSY+s0tkLQ1czGecEr1Ygu/Opk/jXORONdjpeuDNquTSYGaiM5T0QSN6qhtfQAZdLgmSc+a4Wic7yS4OHD0APKLmBy0bMjoV7DLRk3+0C/yycFmqD7Vibpw0OoF2S7m/EJuFX9pWPcrJiiLXzAkLLHyEkPATwb8krLaEbxVn/k9TrTDLz7dSoKkp6IXv/Ine36LK6WtuM5Lfklb0R70EWE/UWlbPT01asQvY5KPjYoaML6aVSmZHm6AYG2CK2FvGzaeF/V5e7R9wPulKwdYncCJWi+2ctFlyU+qLFkdUlBEXjWuKpe8cJEVftm62Fa97rSL9Is3WZ9MFNQDsbmMfYm2W5ymsVg+3uRxLDoGSf7sIqIt07p9/JL9LS9DymoR0WvjJitdNp4+vnIxxPjCtfbh20x4ADg4eGD8f7PtFzLRfM9iBuityXwf6iqmHh8yTxjMiWwFxuYIVGDe6PGLY9vS7fwmGaSwOgDaMA9FTL/WofUcaLJa0Q5xdVNoUebJO6K+pGMV5Prc8Tp4m/UZOljk+Mv1yvHofnNTR/Up6rc220bi3EUae9wvYfHCRVpJJE7zultGmmFtUU8uWfR+QFt/aKAjnfdJ+pVv5BF5CaiDncEiJ287+YroQevfwsBXs92YUdmlvw4sBo8e1K5VXqZXwKTzC7cd4EDSkcWyKZikKAJXJdvzcE2XXpxxwtAkry+r1/2aiLdVY34Jax5N71h4g7e6oovhBsBIEJETlBocLmi/xqPNdgEUv8ajD3qiq5Uao0byqh4ZFxsYaZN4zAU+VnVFs6FQZgDwPswMWYgZNXrixkVX+6/jodVhJKR+iyu44qiLnJ6m6RZX2tbF2ysutx9b64ujurkOM0RSo8bj8ranYRaZ8+rW5Df9Wp+OPcT3t7TB2uF98bJ6UbIPCXZMqWFj4yz15nXjq9n4NlNn2bF3M/1y9/fp37d+nr7+5ifo/jf+RAR+xCENeYKOwfhv3705n3Kyb3U/wvjEOdGPD12h8ecF7ZiG0SKrMDpP5GXzRI7jzOCxdEwfqUmBJp0/yfkYfsRplgNKVqfXn7nY1CftUzFQD1UoQ2l1pPVAharhrY2bBs1jrkdnpEpEqfo12seUXY3QOHUs3dI80kTisnLi9U0JzIBq6sV3h7wF7JO2WrBPoY2u13SJt02zXJjkhI0DxU+6LBynJ1cWnHDt04cetHYQJ4IDGydnP3lDufhNR7qc7nky3fjlVaz6ZMu3Wleal9+JaBwCcNAZ9plf0+CVCH0buU9Ig5ZPoxBQfaJJPIlobOLWR3MnIgV4I7rgT5CzmZ/YisIb9Vs226BUguqVsWE8m+tQQys/eSJRNCA7ysk+h6v7SsUMGAjnkfmSiZ28s7AqU6fWFSyfhrDVdEnWjWVN8rEn0192rTyQ/qrX0LS8vUXhjfmRU/NLnPgTRLGNP4sYp36BwjBysqozfTJWOn/z8TQ3O37gZ7d8LEleFrtoyX5qEN47tG73cnpm+wL67pYv0i92fZfe2PMybdu7RQR+xCHtmW0LJC/KBPXB+MtcSZB9zftTDNPsV6N1v8m51GaQzBU53lx0zniaTCsJaVhD9mBwOpcgOE/aHIFf2lRs1oED7RJH+5q6WZrkyza2NdIA/JmoJ/fyRvQVdQsYLxlPHTVsZQjhc1c22HqOwibXlfiEUtBBtLdL+iztsZeELZfEq7cSrh4tSEU3dUj0tKu3HmhYvTLaaHhqsnS2mv2JtiVtEfwutuVNc3bAtCcwdvhAhT87OcsOhCA9DbPgBdfLy4GYGysuftsKz9/gltVuex4HPy4mt7WsTF4vJL/A5p9o7URiFwHpm7TDu+vwrLGDQIOp31zAhaSc9Af+XJfGY6N4MY3XnNp3uGhPItJOtFcNg2zckvHkTS6ileOhGyCPOix5mbJkSP/0ZOqrOfKpEH555TV4e3w8fX/rhbioXwV9yfugmuqjqZxXXEbKiaPlJexx7odg7HK/1ucuC7eBPeqHWtVeDbKqk5XJyoogQfcp5oVcdOyCpJ+2dfxkHBEnkwcXIH7JWPG8dknnepamc9ZXZOTTffo3CgXpnKHBe4Je2PFtWrn9n+iXO/+DNu/dSNvbttLufbuzfQs/4pD2y13/IXlRBmWDxvC5gmND9mG2Kq3PDmIuAJ8/Mm8wj0SQoGnYY/LySceOJQvYX9k8wrnQzpV5fXpcHAxQq49DjXifxC+OlXA0XuL0XRTEoSxLeoz7eYA3nEvRsdIB1TEtuRqQfHk4iXOPxbmTufDoOwHtt3a5mzdcHc1YQHRw/arLlBYV18HqgdZUsQdRp0TUUi8eeNkMjcjLWBq2mpSlHFykQbzxhkmzZCPbZjFWIHLS1RNvLnl8ZlBgYiXx9S94dt+X8+hBiRN4atTkBymMmZ14DgeGDW5f2QGsJ/s69Up8sY3ZAYDKBXfL+MRXivOKy4uTuK5T9Fq8kxSWVMlmZXDBT8XGGv0oiOeHmH6pI/VIWu6XcDuCdskJFSInVb0YizHD/mwAkjL5OKqrJ5HiuFYKXtI4baFQGFSL9zxSJvfDzV4IIz0RrR9jZXGZm48dbzJduYA8rDFW1t2qMhg7vGSsyuOnIoYOxwOokDETQyU3WGRVExcfme9I97kPKR4LmZ/LqHTOyFi3awX9bOe/0YZdP2WjZYvMN7SrSpCGPMiLMijbp9n0JN144wz6sxv/lp7YZHE9DA9bvuVBxPGB/YXzlBoZfszouCs6f/LVPBZMLpZsX0h+lmzu6YqQnjv0lpbf6s/r0vNeVqYu5fSO8hvaxDqwDmu89rVWeKNtgx8+OBoDR0Gye1ysrJQvC8YDrpWR5vGGh8uaivGtdcWvG8nnUvTk26JrcCALS/NKbZN26UsyZALytgqZIvNk4ZS8bOZl8tgk3YCvLPWQNG6zk/k0IQnneXoF3JzKUc43bNDIgaMHT62BUPTjAuIX5sqdasIbVs8vzp+doLOTtrp6kO7WP7KEMVP4ewR8EmHBgWsHb0Fwwcjaaq61T+qXzmkHUz/mTjbJOeRu7aRC6+FYP0ynxGqCiaLFLQ/KsODg03EykbbaOHM4l3w8eaOu65KXoj5N95fnV1EdeXntpz6fY6sK5tdPjMhgtXj5ZDzVr5IbE3qLyevKDI2kTsX9xbg8VvOjGPze7kyyONVdrq/osqQvVV0HT4drInEqeTkMHMavbMxY2EQvUlCn+1XnJOZ4Igh7fFV6JnxcWJob642yo20zPb/92/TKrhdpZ9sOLoufYa8vrU1DqYWOkLyvchmUhY5G2fjvf8vGAwyIVPafMdHb0LnHwvsqX0WG2DyyiYS5kd5qcnFk3mVlEjio+s0whiHD9YhBY98kxXzjgjJPBXFTPSWdWbgDN29eNZyNW6wvtL9KJE3z4W2FxBUncd3JyvnLdOn50Y99yajFMLbSWPHwuEKRHo+5C9Qv4VQSJOhxiateixDH22btrRFtnrQvd4oqErearFQRieaNVAAf/B5t8akIcN2vSChL91TRphSza17Ln257E9Ii27BBoydPPYm6cAdLB6fAsyI9MP3TqvyeAvz2FUQ/iHmj5ViPTEjWKZPT6sGBiYPU/51bPn3YJxD9xMPt4gPb2yIvc1WthZEni0/ay3BLrb3anLz97i/GOeJPwkCCyJ/pLIqStyNvH/qNNtqFmfuep+HEZH2RclI0w+6oV6L5XdRxHWiP7Jt0H7Xotyr8EyPwdsg+4bb4vkFcAfQbZdwVinkQi7SipHGWzzweLqLtcdyvrqeZywI3FUnjV300XfKby04Ot4mHJ5vbIpjXyfh5vPRDmpHPZxWfw/lxlbVR5rKH8zGXY8Py6Vxprw9FNuz+Kb288ye0vW0b66g2YlSaaVi/t9LJQz9IJw6ZRoNajqVtXAZloaMRnnt4Bl375EqiCX9N/3jjQpMv01+MsAyHKOk+U5clmTi6u6r2mcZhqsgxUDr2fF+rPkSaMZPNJ55L7M/mkOQq11MO9ySuW92sz9JhFglaXObiMDK/djVz/ZiX8VCveHxMclC+VvyleLyTxjupvxap1ar2FmQtYU9Ns4DvLxMPa11oXRpOSCooqK2qw8pCl+vtHJa/nWKaxNtyHvTHvL2HcpsQcrEtb5p9OTw7aPyEi5fsFN2pmHA4ieuFMf8fIPnXYPnfEfzhXj/7d2Cc+HHS5zJ2ewMvqdF2frYCwPVnS6lmzPiqjLQFIuWkKdaW3A8kydoqoD4XqR7tgF8vQnobxvzZJ+2imJpinPtNZyaig+OkFNA+is/6i/ZV+pHHO+fY/1aIPigWx11xmFIZwGlIRl5dRbCLsAv2CS7O1nepGe3AWLMr+8P83ibRlejzsi6aR/Nl42tjKm4pf2G8Tb+KqBLUn/bP/D5e4mob5YX22kUArpPrLoumqx7VJMg/KHO69TMdO/2JejZmkvGDaP2pMVMUGOXaPq4DrtXlfXA03vJlbmO8uP17tIMNE66Oj2Pcsmhl6Sd+lWaRof3G0YSj/oTOGDmTJgz7MB3VerKUQVno6Jif0X/+RH3nnPq76hGOonP+8v+lczKj5jf0xN8VV3D+IbOXfkb/4HH/7reKWP7uSdpYKJes+GS3lFL5P/ScJdeS13Hjv//G4roH9oceH7pfMIVwbsu/fajzAWDXaX4t4/sS6fjWU54v16kfItkv83gf7xebU3v0XAi0PM89mX8SlZDOl9Lcafd/cMogzaUBEt1oX9Ys+C3g8eKyR92iZPnSMpKXRaMKYOy8ZvHbGBfdWn8N6dh4RaUKvU1A6sIL10j4JYz9o37eaMYCHlesq6ZfWVvU1XbDU6nh8EI6bgMh42xxEN3IttkNGV0y1QPKd5SDyaUXND0g5c8NzaBpZSMGhoz/kZr8kzNO/DjIsVLjB7rtPWkD60Y9vsQuz8rAqIEfcd6mwqThktImKMonvmk0YawqqZI3mVg70ousnoTyi1MuWhaa1F+hz8J+IoNIJKND52OYt1/7ko5v7hbFUHWu1oPtwGWlGWiPnWjtQixfHfWLsp8QOTvqT1fNIN4mZFFD0PWhv+pKfxnf+hj4mGauxbloPm0jPHAUj7egYGMhDkbQAxg39etYot3qSts10fR5nS6SZOR5xc8gHe1Uwz0xatxQN4NG+6Ll9IJkczlbncG/cfMxJW2zfS41aJvFJ9XLxuIlNnMbZcPOn9NOfBhgo6Vp30Aa0noCDe9/MvVvGs51t4gMbjmWJh7953Tq8A/TwOajaevO39Ku3bulDMpCR8eMouPMaHnioXpGBYyJq+gfNk2kv/hLrN78NZ3DsU88VHtL6olVRDN9dWfT3XQt+2nGQrpj2kSOWEn/8G8/k3w0YhobNL4axPKRCzjyUbpFjKAyMIr+ip5g38nTvkw3nnWURncTN/qzOYa5hTltx5Oc67LJpftY56UfT5hbOnc8H+KzYw5zCGVkLnGczCEV1I3pgPrEgOLyosPmXxFtW045PcXTyq7TWHrWbSBt8yaYH4EsXtuu8WV/qYxoQcDDKT7GedvUn7oaL9vM76LaHddfdh0Na1mvV+pJ/CLIZlvPn1JQy4Hafjm5DtdaUnXYkHbbRyOVZKMrNCp6YPkBKDuLM2HAdbLpwegn+XSFRiX/u/v8pJ8YC1Id4zveDlyc+P3+cLZCwxcCOYH4QS5tyfE2OflEwhzRAwIbz+cX0tR1fxrPb5Pcz1sNu5ul1+pFmoI2u1shSXyeB/lzXJXqNN0W6fWoqzpUFMSjTfkFObkwy77R9gI9Qavk+x8CRfxO+ljcp1a/uRIneV2/uVa+Vqy89U28lWC0nHScfNxc0HbzW4m0HhXU4jUhr2vPa9Ay2k8fL1+d0bHLbzm5LtTtF5+y+HhqHVqn+7M4vCSh7DbGb3f/mnbL8dRMR/Z7C7171Eya/pbP0ylHXyzPy/RvHk7vOfYv6feO+QgNbBlOz7/+bfqP1+6nddtWSBmUhY6OOYrOmfEJOtlCYlT4iokbFz/9DzEmaMQZNFGMHzeCVtIzzxVXS8553zQayTrHjtLwydOuklWekaOO14jXfpUbLOkqzUOPWmQtv/q3L7MxxZ4Rn6CZPWTMADH67RjRfcPHA88TX/XEPM/nA0T3oc5JxOq89+OHd7Ge39qQh/XimPP5y2F8qJMPeDKHOI41oD4pbzrwKiIVJXQU7gJSZa0edMlFMnnY2qhpGul+FfcXXS+TomHU7WPq/jxcz839DgdK+suU63ekPtHH+0xclWI9hcoYC1fo1D5bwMpnOjI18KQSODIatmn2E68fPCr+KTOX4gqOHtQ+kXR44bE4DbFoiiNxkkf1QJ+sxng98ikXFwfEazj9pJLdFmMd6mpYRdsoZZCGuCQ9L5O7WVsknKdViuSzMWCp1aOivQTFuNRVycsqqZ+RSa6zvP6BZZ4EPSnk4oaIhnOdqCsdn7xf2i60x6mvLxXOJ3mlhLnFstWieby/1ZLqUj8oh/O2I00cy6OihpbG8TbxK1nexAjTC0ge5reIku5PSD6G6pb2KaPlU331pVHa2nBLSW8vHdlyIh3ZejyNHHgyGzFX0n8/8Tb6wAl/RacdczEbNkNo+Sv/TN979R9ow/afZGVEWEdDpKslslJibLqbvvVToo2vvZyFrxUDBKs1GtVlfvp/2GC6m16kC2gu6v3L1KhKWUlP/GSlekcdx8ZSz1E+9rF7YMj4qrQeE3pM+n7X/Pp1bswVKYONiOrlnFoGxk1WhuswQRyyi2EtHyD5QyMb115ffYrzLg935JYppmdVtlO3dtHmcOKvETuutEw9N/c7Or46Tro/ME6Jv9LVMr5vUqkdA3WLaRoW4Veus1bSMlVonyxQSa4j08Se1J9TCOQgupQkQWlfNfVTegmFBiLgYlveNMu3jWDA4JZPPbFVFDF08PVrETd6NM6NDjnwbbUn+8QBkQqTMKcjD8SNF3kQGDpMl9ejgr9VsGV8LyfGj9Utt62snEixXRCUVTcv5/o0rH3Svno563/W31xEn5RXHd63fKCl13mfswOKXbyy+DxvmfRgrj0QvKxSPglA8os4EqSE1enjb/2w/qR9UV128hFd9gkxiStgQY+uSa+gXl4EVfK6qsJOOg4O8rhbK6o/Tc/an8ZZhHtBPoYm/rI2lNviunT82G8ncjUOc/E4dxtlcPMIatrbj/dhM63Z/J/09Mv30KrX/pX6Nw2lE498N71t2NnUTP3p2Ze/Rj94bSFt3L6Gdu/BcxpsCLGgLHR0mnf8eeGB4Jde+02+ujLiE3SHGz4mXb3989wqW5GZ8Id0ivrqcs5H9BYX/eSvkud2uo8cK3bc49jBPsLqDAwM3I7Mno2ROeHHFsrARRy0YN/yeNtL4PhsHiE/u6mgIFZk8Nxi//79qP+AAVonGzVSnysp0FG4OxR1oQkqOm+LoivFaRx3JQnX+lWnu+II8PMIyTgVzlt+7pLzl8fDzcX3R7Zf2NUxd7coUpO4jsaJT/Kk5dSveL5cj5P2xamKq8X0JboEDkqMux2gefKctWVKMeibeXsDWVvgwdiKa2Kp2DZnBkN20YaLSeIXcHYRL/nUwEjTdGXHwjK5MGlsUmFn88EsDeDq5IWBkjRzLa8bM7lxA7F2yVe5Ub/Xm0/eQj60w9paNmZU8jJar8ZJWqaLpdzPSl0QtJnLc1t0YuvDezLemVifS8KbfDxEpCiTeTL8oGefSRHocTyfl5ETqMchg7VJn/vQcddxyUXa5zq5EMqnF1oXqM3rgX5EaLHMrYOWFZ+UlaKupxFJTpSOj2XWdsbzZCfWQrncjyBvk3AiaJykicpsDLN6Uq/E5+lSBrqzetmo8VsHsm9y0TbmbqOM7ncyVzGA52ETbdu9jX65ZSUtXf8PtJQNmO07t1DTvhb67rr76QcbH6HXtv+Sdrbh2Zl8dQZloaNj8HxM6VmYTSvoGQlfQB+GwfKOP1SDwlZsHHzVu6sGxqhj8UxNzsbnvk8vmr/IRDpu5O/SB+UZHKInvlP1jE3XSM9NYmgweH5GVkzsNjv2L45F7Hs5luTckKzQ8DZblcgmE8P5pYyVw3kx+zDIyVjVkdWZ/v1pwID+FQYNsAnYbXTeNoJWL72CR7GgdlH7KvM5mf/pMejCm9wPFeIgLEGGPdwsGRMez+y8VTh32TnZ/Hm8C8bYx1bDqk8FFagf9VlY4lCv110raTkXYI6R9sWpimOyONXg+iSMetyf1YC48ivPobl4qx52iimCePOySpLeIZ63VKbUl2J6WX85XASp3r5Ukg1uOenFX4yaSkFani7Gg1zgay/2aiWz3yaUHJiYQKgMb9kZ+YHropMQ5XJdEK8z+6E9i5dyMiGtXFom8bsUdXsZOyjYj7CcfEQ8n/Y762cd8bJ6sHDv8tnHaNj7jaQsrAHJU5QcTHY/wKtxPeyVvJo/k8KJA/ldl5aTsff+276AyD6zpnBJK191ETa9rpZxbxZVSoc/b4u3S3ymT0XTOhZRI9hYJOT5cr8/UFkUyV0R7yLqDNSh9cjQ8yYVjc/TRS+/qurFiT4VHePcbZS3DzmDWtqG8HxsYWmm7bu30/otP6MfvPpN+pc1X6TvvHQP/ecr/0yvbWNjRlY6dWVGpUXKQkdjrKR/SL/BhFtBshrz57Z68rv0F7Zqow8Oq1yLr3p3kZFnXaWrQD/5K9G14NXj69xyUrL8uO31sD1Y3E1wTpPjnQXnNew/uQ2Eb3naLSeAfe/HkZbxY4onA+/S7IFeAS7PG2w5XS60KAu/XXiRiBUa3Gbq368/9e8/QJ5VrDVoDiBZtXn9aIrMa3shQsIm6LfObfWnaSJ4uQ54LJy7io6vj7Gfu1R8rCvFrhf1jBkVqSHzS1jiUjjNdKh4fpVCgZqy1pekP4W4QnyKKWJHfVxXFs4iSyAyEctjJRVPrqEykqkXX4/28lta1udy3qr0an0Sa5um225+jPdDmjmfQPmE0rhs8uFihskpeZAguWQH+8GIybNj+3bavoNl+w7auXNHPpls54t6YLr1k44+cJw+hJm7+g2r/GDWNu/bh9pFibbN/XDFn2XNkAmISGkLnHxyYrKLekE9ed9ZuO/+rQYdB/TdypqevD7Vr/pcV6rPDYOieD6Ucd1FyQ9KzZuX9Xvt/bBEza4bInrLo9mMQzdW9TaeG3PYb35Rha7U7+L1a93Io3r1Uyr+79T7j3wYW22n5re4NI86CsYmGScJmSvbxA9H55Se4OBqm7kdto/SutFmPenlJ780L56J0G/s6aduzLW0fugQQ1bKs2SGPn4gco9egJDT8udu2a9SDdqpvu+8+Cm5VdMR2/ZsocXr76UXtvxQ/trAwb5oaepPA5uH0Na216X9ZQa1HMHGzO/T9LGX0+DWIRYbpMCI+oNjP6tziOeMH184tuDiz3l37NghsnPnTplXPh8hciyKMcLCfswZX3HGD+XJ6g+OP1yY2ZW5gTe7MJaGDh3KciQNPfJIGjBwEJfzXxD2c4AePvnuzeeQUgz73Kty4VVXj3mPd5c1SWU6lyCaBjSb5839KT4HU9cF+tSfx3seBS7rlHet7hwvJ04J1qtOEairzJ/j5zyMOTLjNqBep/Qa5f214bL6tT9Ax1XHGORGlekVvwr6h/NR9m/svD/QvryJNgLQp74CrCXTJSJ18XyxcK5IPdk5Xs73OB/Cz+dEuCygVKQAa+WNbC3d/CCLr5eumzysPt8W+mFpnopxcOBred9ZM27Ug88PQD0YM5GwXwD0gicnc1wQsXqBk7q4tpKCH8iTW0S7aQcf3PgFYPwSMOJcZ7ZykzUSffAGqh/pWo/WBcnKczraohcTbwunSRuhXy9wWf5SOBPOn17gXLyfmHDlMtLuJC1rq+jQE5K2Q3Xmuqok0V8YD4uXuqra7rrVr2Vs8HivyoTEQYAX+30SIz/aquNmYvswG2vRJ9NI5gzKAXW9fdCjcZ6uaRaXtTmvszxeeoBpGdTj+PT0gwiuev3A0rDEZ7lzBZrfDkhkLKCVSZ2Ak90wxXj5rSAVqQQdkvxoK9rvY5StRsp+sL7wS+vUNqpbJZ6mVaik8Sq/eP1x+pOzP4TIdunXzBfKpkH0+s5N9Ntdm2k32rcPP6RHtIf9O9q2sx/zoCj9uMzxg06mycecS6MHnWDagjKPPPV1Hp/3yP7HMcl7J9tfmGd7+DjyXzeHi7kgk4ZBXrkwsfgck/MD5osdD8irjpVhnToX+ULJxtPAAQNp4MCBNIBdrM54Xj2GpEingP56Lrzqqnh85nrdJUECnLIfL4RdJLngqt/1ZIL8pTgdMxU9v9QTpBfL9pjYC+9snLIPfeiTjpU7KVl+yQiBTqTIxrYK58o+aGkZjU1BHiRkSamU0YoqalKgX0T8qM/1WkIKfi9HMprUUKu/SDm9o/wJktXyS93FBrT80dSPZAaNX3SK4hfk4kVPXP+E6gYNDBk7qCG7YNDgv5nkYFeDROrBxMCEw8smiiN+FuRVA0MvvKhP8+pJAOn5rTBtj7aT0yxdJzVc1ImLqPlL/XTjIOuX6CrmEcl0aFo+ZiyiIy2v+jw+1SfP3Ig/j0v75v0rthnCuqWOJMx+zi7ohMTFGR74dGeXTwA6ZjauNrZ+qw46Ub9PHNctcYa30TIJUoQ3XoePu8RJP3xfaNlUUj3Aj5/swELY+qNp6iINpKXzMiplpDpD1foJwyQ5iYC0neiP7F/sTxkv7Z/vN4BiWjbRqRXl/qQfuQDPo/KL1x9ryKABRw8YxW0i2rpnK23dvZV24QMAN6lsxED27Wumgc1H0AmD3ka/f9SZdOrRf4CaTVNQBgbNsQPfrfsZg8pDhf3n+8kNGT3PmUEjw8npPJ/wCd4NZcw3OS7k2ND5BY/OI6lO56Dlx60mGDID2KAZOHAA4Xe/kJeLZ8dSZ0Gb67nwqqvi8bnrbc2PZY2zvhT8ErSwikSZR/UkYpnzOMsjOlmkPq+X3ZLocQix/FVSqKPUBqRlUkshH791P+n5Qs652N8yVDpeZcrjCiWsTtx8q3CukkHjZXLdyMMJGpNHG9CWiClXxwKM+9K2SVWJX+vOy3QOL1d2nfbCpbRsH1l3801Gy9lTPsQGDQYWE0UnA1w/eatfT95yMhdRIyYTuTjmKzNYqcEyLFZm/EDHhVNXCrgOrk/9LlovOuBhrV91S3muV/Oh2dpGrVdFLi6u11z0K++bltGLq+pPxY2PosFQFG9XqlPb5GPj6e6vo4vj0jblunLxvJoGMV01dSCP7XieeLoywQdBsqPLOvUE7GMHPbkgPd8PWl7D5jNdng7X82tbvH0Wx2E9EUG0rSiirpcVzdgwaLcfTC7omvo9LXehjB1DopLyZbxOJc8HKd5e0xzIr/2Cq2OeG6o+/tCoy8TQKW8oMDcVRIojeRWEy/kgqzc1btBwCRp7xDga2jKcdvD+3bZ7B7cLqwG4gLIRs5cvqvv6U//mQXRE01H0tiHvpCmjzqHTjgljpiNg0IwacIaeN3gOY7R0rkBIjiM539m5DrMLeZCeGjJeJjsekBNvmUB5XPpbR5lBM2CArtC4QQMxPZ0Fbajnwquuise7K220ujH3ZeZbH7wtRbfcPs3vrpdrVLxeOe5KommarucaiJVFO8Sf11luQx7O41LxdHF5q8aGny/gIk3HEG6eX/Ex9fEEqld8otPhXHUMGkdySDXutospT2sp1AgVSftQXervmLwfeVsS/ZWU09vJz0nFEbJq8o3QMu3MD98Ijw9s0dUdIorYIzHsutHgE0atY/zdPU72fnFnwSTDRZLTUB47SAYIO0pED9rcr/HI423wyQvy/C0YbUnXPGiZ6ZbOWQcRLSCf6kv9RdEDInfzeLiiJdOX4m3lcshvZb0edUvCr6yN4ljbLUpJ69Q+avliPRh76NDyKgrS1cX4qbGiF+TUEISkaTreXhekGFa9LPySt+eRfKn4/k/jtB8+X1TSttai3cFGRfonbx8v2WQUxkAcbbNLuR7PjyJ+UoIgH+dOTpTeh3ycdG5oPm+PiGrWLUdkLySW0KhivGfDLaeLzvqTynJVoI4RA49lY+UdNGbQONq3p4l28b7FMxctbMwM7z+KfpcNmWljz6f3jprGBtAJUiaoD+boN55+hEb2/0Pd3zwXNF7TEJd+cMPxhBGV5w9YfHUGc0v3kJfLJ6L49c3o18Ezka9r95dvOOFZHOjVc6zWnahpGJ9PVS686qp4vLtyrGfHg92elkagPe4vumm6n0vcrRU9rvQcAeG4wvGXiKeXReqCeDs69uMlb/gtrRbN75SvYxKXjZU4BXxMPQ/wetP64ONckk/njvqTqplcT6qvXaSfTkmb1MGuXX+zsPk7T1F/AVFXTu8gXGi7krUqaV7TX899WPefkO8wH+h0B7tf02QrrqTxFhNcJpqc8M3PggMQkxM1yyChBUlr0vFyP+rJL7RtHN/Mn1DwtcUB8qQ/7knrQYE6UA47v8UeosJDw4llCzevEEFpdtYfFrQzd9WAQh5HDS3VKZMME5nDPuFUDw4y1adDBAUIqw4FAego6vMDo9Bu5Mx0523UPlsc+9EOfzAt/XTnUiY1YOBP9cGPNmhbvG2peNvMhdfapyJVtAvKiQrTkYV5k60w2fgiLR2rcn4ZzsIYF9uQt0vF0z2c6Sq0xaVYHmPkc1r2Bb+kqG2LoK6ivio0Ok/Lwvx+5hfX0/yZt9DRw46RtODA8+s3X6f/+Xdz6KQBl/Mc4H3OcwD7yB+YxNzErXc1ZnTlE8ciVlL0wfLWbP+L2L7m6aRThDf5BwnVr8eZHscoP2jQIJbBNGjwYHm4uI3zuFGj5xtVJToFjcsphn0uVrnwqqvHm8e7i/OFrpzreVnjZWv+sitb8Ts4bqTB0i7vg0l2HsrF80HSD3N45ZrNx46PcbFdqb+xdKcUNPRWIn6DyH9JHHGZHriFfQA9SFdBuvYjPfdamF30QeaBPRisClPyurI6E3J9uV7Ul1+f2LW8AG2Sc29yrk3D7QOdRdfeiteV1VlK7yDs7fdxKpP1nD0tZ0/RFZoMSy0OD5QnL6kANRbDMGRkOd4PTkuHNhkgOVBtJ/EEgF8MEH9gTgbPBepVjxo03FibODjIkVfagLaxyyWSsmi99kByZBvPL1vZuQh4+2Wns6s7XbIyXk7bVHTdDzWqQwpaeQlzWXEyPQaX06KqQ9oMfXlCplt1uC4T8Wt7NZu3BZs8n+8LNwz9Nl72MLW4mu5GqJQT3RzPfvZk+lQQ5e3Rr7Rm39RgV8pm9bpoW1xn7YlL1GV416VPNi7qN9EYeNSPPCIWxbBW2RYUG8iXl1GBOi2u7UFb81Umn9c+RugjZ0IBFjXE1O81S5A3LhqjabpxNOB53N2865c0/Kj+9JbRJyIiOAj85/P/SS+ueZ2OaDqJ9zvmRT635fhhAwbPDcoxJcdAm57X5Byn34bS/c7wbvbjCWisb83lnS//D2XnSAh0QBfi+Qqj8xBqipPIKMfV5inPs9TNjwfLB78kq6v91uMcgjb4MSwtqnF5m8Tlxz7GEOcEC7tgfEuix53nRd8tTtJRJhfeqGt1Z23gl6blcR2lqUiSxTk6PrgG5R9qIXka3DL52HIakq0ec3xj5HlVLDrRK3qy+spAVyrqqI+3hTIw0ot1lcNdp1xXGWtbRlVY44r7oIhUwZuWs8/80I3163NlLJkXOxyikykN68RjwWRnF2moBIOCnZ8aL5lBI2H40wFEi/QC6M8rAP/E09qP8/MEknqRIButR17WIbnUow3wWx7NjPYiztvu7VdXLlSeD1veqE7Xra6KRCR6UpEU8TseV6tLFeKFt4NoLe96Uv0qyK66FMR5X+Tgt5OPPh8EwW2m/AQs8RhruXDbiQT7EfolLLVCsejWNkhNIukJLr/wQ6wNpXDadpVcl3gN6ZONCfy6f9m1tCwdfjm5IEI1qTrVrTolQnxaFuW0LDYShxwoI6612YyZ3OizeBbk1eKqS/RwWGAlGuX1aArKqCtOgkWYAmTft7eJfrz2O/THf/A+jQwOOHd9/W5q3fk26kdHyb7zfY+5LkaM3WbSh+s1Dec1PU+xQdPaT/clytqcUorzAvsdswcrP3q7yc+P+Gqwfj24ST6pwyjK51E2YSpJJplkQxh1akSVm85XaRtcSVbX+y7953MIJrI2pT3XBdn1uJFzi/jLoucuH2eRJC/CalDysSjxuXhd9V3U37hrvkQUDAs22D963co/jGu6ukU0XYTzCqIyr4UrFb+j+fOV6ZxiPcW0dmD13qscDUOF16NSDHeM6031l/yipl46aD+cDw88tW1CTMvU91x8o+88mTRy0SkJXuzyJnNV5J2BfA6U+20D39k6AVTSwcJ4+aCpX7yKhfHpRH7Eik8UcnBLJmuPwHo8s9TOWJLn0b4oeTm47jeacKHytqlOc1Q1wpIRJe0F3Yk4SBOkfK6zPAaeR5DyqseNCjmQPeyiuQXXofGaghiIrphwWTE49BkaPyHLw9qmG3WyIjmpZvvKDNCsjYy2Q9vkRoysZECgB21IRQuZ39x6YnrgF31mRMhJVFy0WU+oqXjfauKhw92yyEnS6kR/Er+MF/v9JJuKjJNRsw8dDkpMOZ5RHQko795sQzR4wLH0ypv/Rdt2/ZreceI7NDI4YDzy74/Qz9ZsoOHNf8Ah7GN9js/3aTYfOKgXNf2gJr83I785o8+9IIPnhYGs8wXHFMrYzmY1nEO8fty1NON8p6s0+gFQb6WLLi1iftXtF3ydv+r3YyA7FsQ4Z4Efrvg5zfz6jVV13WCT54PkSx97aCeeF4JIWL+sIfpNt9cBN2uP+P147qKgf+x63x0bPSU9jmwfIa6Ml4cud0Ur3mmcSRa2PCmarvlkLFNBu5OwjMs+G6MkXu9qsJhB/P9v74x9bkmOKn53l8UWRgiQCIiQc+eWcAAJSJAg/yOWkJAlxB9CBEIiJEaCgAwRI2RCIHfgRdbKfu+tYanfOXW6a+bO/d5d430v2TNTU9XdVdXVPd09fefe971J7kPbJBZaPdecu7XnColfYvtR3hHTl3rzCdcLK75nMHRHHLuNhRIVNeXal1QfFLfy1nPI9Edd/+LP/vZzx8x1O44R/pWLU1WsjJ030ioXzc5XVXI/b0CCcFqsbbafNdHqZuKDyZ3vplkIrBc7fHqREOGbesRV2vU4TcygPEiGyw+n/KlEaaF9SIS177Rlx+GYVl1cnTDXGbttH92UT6wYy/GSm/siI9mpCi2UXizZnGhy1GRxf94/9K27SYtnXnn3p8LgXP+O4wV0c8x2rOGP+yVUZb60jv2kPHHrkw/hjPsAHsbYdU556q42zn4fMnDdZUn9J3shdXQ1uwwhmYXoIYpZ/ulnn9z+/Yd/efuDb//+7bu/913lfYUvH2xm/vFf/un2W7c/vn384a/2V4qMtQ80h/zg56Hvr8Nd7nGoP6TXGxo2NvmxsHhtCtiY5M00b2P88MoG+qY/pucPbuZT/qA4YPTwsQv9fMjxQz+yF3+NVwgLjHTx2HoOsmxbv6GZlLHq+SlJ8kxPfgAhjfiWPGjqLMRf0KLZTpx1VlpyC83u0y0PpF13xPwvnj46IL44Sye/C5T71q/WrXbmQxZp6RVkV2PFm9seB+3HKtabSJ+ZPL4mpwouMCrb/jzGNZZJs665koVjlRHw26Iw05HPHLxUVqgE43rHzxtO9Wgxt18pyUV//qd/0+aoTE+dKmfhYqSmHAy9lJ6Rjml2gdiUjxLVAPzRiDLSw7YILierTi40iB8vdcPUniLJiM7DzPnFDiG6TnGzxjkNSNiH3BWi09qVT10XxGBRGUqWgezayX0cukzxUDeYZQxI3mi5rz7SRsZvNbwAn/meKIOzkJbMpsYTYC+YWszIK04+7VJbRnvuMLItYnMtq29W3pnPsmwoegPGuCjsvsjd2Fj2zZJedR5g6+0PjPtS6lqg6G/GXsynAig2PS9XBedvha23pVc/++T2H5/83e1rX3t9+6Pf/cPbt775rdtv/Npvut+/wi8EjONPfvyj2w/+6we3v//nf7h9+unt9uv/+53bR7df0RhjA5Iff/IhgI1JfgTMfNPmX3POv3kx+Q3Nmzdvmkq/+NSF+8OGF+uaVmXDHOSDW/6fKPT8GxoeMPqiswaRNjR18CPhrJPnr2sydxd1e4WVGPnS65yDfMxTqriGYM975Kxzyhv5SmPW1wCfic2+7XfHu/Ox9VzDp+fb0RsYOS3unJfKwGXmSqZtfvgrR/lLQXG6TZzRgR9tLQuUFaN11xtQgzHgTbLHFWue/VAavoGP8yYmY8NjQlrSQ/YmZse3NjWd7yhph1jjVKmwg3YdwHU8xyV0Grgdc0xXRArE8Z7o+9/762V6j3auS11X/C+YFKR21Vbhke05/+U6NlIRvBoEr4bttEFjydehIpek/AqKoC80v651GZ2ua+GcLmR3e8mpG9662HkwnxafKqirlQrRn/bIsh92+g5ei6CJTYv+ThCfEvWpsqgXZH5HsxfgplpE4VpMi/KWLHy+3WER9abCpNi+MB7YPOHq3NY7o0ruHCdWOvcg/Fx+lz6Ctpq8qXmk9xDdVw/tTuU//PTfbj969a+3//7Jf95++tmPda+/wi8G3Mev/9I3bl//8LdvH3/2O7dvfPjNynX/Mq48J/zpmHnA25Y3fBXTGxT/lxm9Eek5hEzeq1ev9V8ihLMx0ocFdErWb2/6DWotAZp72QxBfrAwxvwQ80bGqGXDc7PGAj74emLOVT/Aal0IH2NGEnmDn3W1URq0xzzjHe6+Q9CxHoxN5XOW97lQLqteLqOeLphp1V1HPrj8/GvNz4uqvdqW9Rta8V2RLWj20jf1WpE0esXBpZ8mxlL+FhF/YDFrXfycgU3uvTcC+PF4WGPCipLn5gVK/85+PtaDXosPUG65tvwC1+k4kg8iJmaIuUK9ircE92XHSvr73/ur7eECLlSNtMHyATOdhos9wNkevOTzGaiFdLEaR5oj8Sygds77AlBUo8MndDM4ujgDPwNClM63ygG5mRx9khthYxlb4BqbgI1TJj2f6vxqPJsZ/sjh3pBA2rz04umFeBMLyPoEuRbJ/X0vMXuiv49Fpt/QVBvV3op1dNCxnytxuPczzb2ZPLhLN29QmnvK/Ubf+Sco48pX512VT7TfO6wxY/mM85jT6GKo+KK0T2zRG2QHKybydH/7XuND46fHBT7Qjn1sH6aBmPOJoIOJ5OuDNPeceLjv+NOnOD4QsCmgfali8MiMW/0hPL1hyduT1/rL5q+L0x7DlWkDUhuTbPRt79+QMK+IY86ZvNnkrQoc/2xk3rx2Xdbbcy0/JtacqtjtY7+dcWNoANF0Q0S8rakoyyZvTy3TD5uTdyDciJNu+W3UNtRLf2d9c1j3cqguZK9ya2zMWHS+IMvnWGvw/S4x20XVdIdiV5xTdswoEWHaLjsO2SvDfYEMLn1ZZizp7xHV+IPvNzTMS+yH34bsm7JWzzExdWI7P3RDmvPFoxskz2zX+QizvnDL8J3e+Uddb8jcDsfWcXZ8lj+4ffSdb//J8Z9tP4JidgUb5zSgshbvcKX/jM+3wZ2vhbsHu9IrXyobq4rqJI7uxAP1sRD74viz3yI9MMiosuE35cqHFvBf17pocFFXFh8VtBrAPPWEyJeanGw7oOrQM+dETV858fBpWvVRWGDR9Ot0v+1Y/YejghZbNjFMip4Yrr4upZKvXaRvk3cGtbfl9In6NMRBnB0vx5JXOtxtO+SP9JJP+VYd+q3roqM8objVZd2CU9/tll1j+VOdwxyfff/8ADD3QdkoH4ReyHknPfnyvRZoU7e3SpceldylWz6kpUNApGGz/HHa5DSnQlEf0wtF0q9YiZcFmrZjo/j9NU3GtL+OrY1+/whWP5LvuaG2FW1f2LOZw3aXU4c21Ktv+PTumKhHP6rVG9HyX/NP+ppv/VaRsBU5LXLMaSd+sNEHkvKhDyWax/trqsObGCgOux8WpR8c4kar3wF7X8wLGh/4aZpzX+Nm1QHZDlkYfsSUDnfiIY/P9t/Z7xSujxvLycUdZ1lix9WxjvTkQHcJe52Wle4yTsOC2t3G6Hn8cs89FiPHz/YXn0tcONyX9O8dWQXYn6SSjzyw/jAStp2vcBP2jrXaAa+2OP9MWBqOK/M6GxvLT2xo4ml4fBHHTti4sn/W59tAnVkIemEpIhAOnx1UVUkHSeyOOnZckxQ5rXvwow4tqk50Xe27EH2roe0DLJ/lX4tmNhZjcYy9b9omuZCb9hV9bOtwLXVkwjco0xsWFkEt3v4Ey8GJDX8cai+w7rtVZwG7vJFZC2cdDsf1HeJ8l+j60p7VLxzFV95L6ZaV7DKdyrtIH/KRKZ551j3ENXmBfj9AXTfynunH4Q9J9vFTZx42cEjZp/s1KfpKh086jffZpip1vs7WTxq585I+5y9e+VySLnYoJ508yWDcA6CiuuTh63XBebQBZcZxNvpsENgweEPj/0RXDoVq2/LlRdT3f89b5dPHvREhDD9cmHf9rwq1EfGGRvOsPmHnNzlqSFeXOMlTm8rHzz77n94U8S+M7CNz0dTriAzaD0f5WTTvnU7qKLR+xutCdJrHz2prtzc+PV5abqqL+fQ3ZKWTz4l+ZA75sMypBxdH578vaJyN7sq4WyC2JsUetIi+uhs3JTi9OflCTNVuCSo/33uPNcaAfcRevkb98RG2vOJf9y/kPAloFVd8i6hi1mMudekrWVjCEZguGn7nc7DJ7WtP5Tgxatxp/FV6jL23bGg60i8IdcYBV36ezXsGu0FedPp1nLqhaIRT3eODXuKk4zo9ybpHyCN+m9yp5kb7rIPyVL+Q+qBehBiUqq/tOAXMqacHmtK+bD/4KHupj5iC1JUNiTY1RakHt1z2ZoYf17rvUh+6xwnk+gzXqQOOv5LfOdQctzVcef+P9CKlu+yOum7kPnwO3vGZtRB0Hy8+857Aub6MAfkoPsfnueyOOKYux1kHynh0AKvu5XfZkTfTo+7Ou0qXcEg/0ucU+l64A4qpqA7aIvKDV3YiTBjTngv6MwCQNjT+ComyfY97QxNfml+VX3MvSLn98zUQ5d7MMF+0oWET0mn98F7zzV85yYeCt2RKnJ/rqy39ZoevrHrD5U1ME7Ho7JjoA2IhZt3PTjdFJ1A7OYoL6PsiPm11/0dfuA7K3MeWty3nktu3mYXoyDdHbF9Kv0/QRfR1+qwO4hIW28cZ6Fso6UwpA7TZF/MiadS99rjd67Ef+pBNjZ1QlymJQPqe65hpxJXf7R1knOsM7AfW0gOUvXxsuvuAX2kBX4oLYk4fOfkae5e/oVEUle3T8h2u8ox0jPGs7WN/b4cb+uEH9TBeiw4DoFCX6hZzOuhK5nJCeVQ/wNWeC3nxwuGNS/m+0z1hxiG0iu2K902Kjx1iWZY8b7z0tLBwg3tBRakIlr8tkX/VhL8VU7H5fb4W2C5X3QVPmrIvTp2OC1tpLf3F3xe66hXDge3EffkXS0+oLzjoEJ2brz4aOkuv8+zE+lfgXrZwQmUMv/JR3A8w5+lB3uNCOgd4bOyx0tmF1Dljis8QNowLbZaLS2fG0jJJLju9y9tI8rmdSk/Zgi6dKmxJ3lSPmH5PpYeuFryuq/WZD/m9jPjrV7dX4a9eaZ5Il34p8NYyvy+DA9rv+ef/esS/4/K/ttumlGf+9IOnOD/41d+o+WV8fuyHUz+kmGOO1lfssyHSv0ysjKxx+v1ASOm+1/Oej6bTc4l7rh+HhwiKAaJctJPIzd2tXRZEp+Vg5YFVPO77xEUWkK7K2uqB3peJFW+xw1g+8xMS+4EHiNMOuXzrUB1F2PT9qdulfI/ve/JbdtstHwtd86geqD6pWX8SUN2Dki+uE13lLK6rmVBmDXy0TwKRz2Md0moO5vNw08xDp/jdhkYBdBaVRLjDVZ6Bczt6xu6xn+cxG9g3k/o/VyBVQ9dRzB2Y5JYvUebl9a0yWAsCVIfKp94Js27YQavtcqNOpcs23HpFvZARw1pEa/R7R99Ui2J04ehnI5N/th3Ef/zA8Z3FkskDXziG+e5QMZp1v4NDWMcYp85Z/23pMy71ddZBPzcpD3nlW5vTkgX1eaDu9z3Yk7s16jIXsdz7KR/yOoaJjNe6cNrz4MKMj7PbgI7GAw/H4q20yqecuu/SXNpO6Dpn/XeyhEiUWZbvrmO9TSlai/uyrk+4tUFgM+Mf6r6uzcyrtZl53Rsa14sFP8jkn2Lzo+DagNSGhrhdTnHNB71t8YYGrlqIS6SkZAv8PS1vjPCHPnOSTYv/lAI/SHaHuB7/hoY+1oZHfmioNdzocc/ph5LVD5WWXpkk3sSlTUzLiq3LBLlXBe67Trsf25eFe1jlIeL3kd4qf4AVswLuzHeE1Bmuvh5E6Io/PDYWVtzp71XK5WR79o3K/NofLY9xyj3Wk4YrnuHnCs52WfQe0er3psqyrc746Lwp63TeFdQD6oRg9MnCiEUOke2XPCXQQrzf0Ixkie3+hKu8jfZ/gbPdy36ehxu1GnirG0qecBXMaNVLIbSp2ZUfIzcFvgbrsn2L3USS0/bs58D6StsHafHL10z9an1+5bQHv4kFVv/JGrwW2PPgxd/6VFdpbPRptDiL53sF3U2cEjoPVFirzyaSP8sXezLdUJ0W+lLlOjc/3xvlI1thgfRsQ+R1H5JuDvQQHTTvae7NeUOjehvL9xWlksKyiT3JKj5/sqds1nNu7znt0zzVqd6TPPM6pTrrkpR85vv0tJ/NjN7UVB/Yh3V5Q8NmxnTczLC5YcMz9elbb2i8EdGHpipx4PlR/f5A4D7EHO7Y9NBprq+b+ABRunw97q+U+g/vVd3qldKNf3+lwFxmDtqnv24iutJqv+J6wA2qw23hbN4+QiBlVDltD76K0Ft2Om0vDHHjoCHgt4WFc96VDo5SN2Pvur4vD6qbo9s+N47pH+KVXMdqudTryFxpP8nnlB1H+xHJv8cN9zv/OpXffGGzNzNnTjxUTLpj4tKYZZFjS57lnYZW3EUOGGyfwL5ACTqdgf2R63ohm9u2heaJQynxyGIFC8ff0KzCR0hDXsauZOJs+5yv50CFXWm7hR1q6GJ3Mtc+uqMuqY8Ya/BZaOZjpt+KjuMOcrMcOT0GkUukZCTGHnz4VbQlZxe/NzNw8vxJL3Za+GvBz6vybFJS52EjA6809S97Jg+DPo1KbO8Qhz6CFIT76a6sKDbhHMvkmfQg5XX/qM/TT80PP9aTvdMua94k+yZtPHXvkP11w5l4KAe6HxkDLWtc9HhQUcqVh5Ft1ba66FCsHeOJ1NaZl9hnuS/mdtvsIi0ZW2UpL36UlrzzUr7J/U1/IUup25T2QoxP5WMjR+5rvxHxBsL/Aqk2FVBtKpgn0acu+dF4xydfZ9tl6mFTok1lc9ed8t7wsBniDQ9fM623M/4Akd/B5P7jXT7Cy4fmWW/UPq+MMlFsEPD1HtLBN/c1vO04DobEy5G53fXl6zvaFx2hbJc8cPSrlNNNnbPzTpDP1NPulxx7zm77u8Lqt+67tJ17FJCnI3kdb2zOPnw6PSHfOrl4Q7Hmf41ZjxXszDN2TOhZRt/rP2t/8v0cCOHbvkK7rYquuHXN1zomvmn7jF5xypZv59XZKLmlPMf22CM9xuBIe07szVad9FLhdvs/WAeOURjS430AAAAASUVORK5CYII=;" vertex="1" parent="1">
          <mxGeometry x="143" y="40" width="564" height="415" as="geometry" />
        </mxCell>
      </root>
    </mxGraphModel>
  </diagram>
</mxfile>
